<svg width="80" height="21" viewBox="0 0 80 21" fill="none" xmlns="http://www.w3.org/2000/svg">
<path d="M12.021 9.03322H5.34869V20.7596H1.64375V9.03322H0V5.96139H1.64375V5.21347C1.64375 3.39708 2.14817 2.0615 3.15703 1.20673C4.16589 0.351963 6.3091 -0.0487096 8.34421 0.00471387V3.15668C7.45711 3.13887 6.2184 3.29024 5.87052 3.61077C5.52264 3.93131 5.34869 4.51006 5.34869 5.34703V5.96139H12.021V9.03322Z" fill="#4A4A4A"/>
<path d="M13.477 5.96139V20.7596H9.82428V5.96139H13.477Z" fill="#4A4A4A"/>
<path d="M24.0523 5.7477C25.7744 5.7477 27.1659 6.30864 28.2269 7.43053C29.288 8.53461 29.8185 10.0839 29.8185 12.0783V20.7596H26.1657V12.5859C26.1657 11.4106 25.8787 10.5113 25.3047 9.88799C24.7307 9.24691 23.948 8.92638 22.9565 8.92638C21.9476 8.92638 21.1475 9.24691 20.5561 9.88799C19.9821 10.5113 19.6951 11.4106 19.6951 12.5859V20.7596H16.0423V5.96139H19.6951V7.80449C20.1821 7.16341 20.7996 6.6648 21.5476 6.30864C22.3129 5.93468 23.1478 5.7477 24.0523 5.7477Z" fill="#4A4A4A"/>
<path d="M36.5013 9.03322V16.1919C36.5013 16.6905 36.6144 17.0556 36.8405 17.2871C37.084 17.5008 37.4841 17.6076 38.0407 17.6076H39.7366V20.7596H37.4406C34.3618 20.7596 32.8224 19.2281 32.8224 16.1652V9.03322H31.1004V5.96139H32.8224V2.30191H36.5013V5.96139H39.7366V9.03322H36.5013Z" fill="#4A4A4A"/>
<path d="M54.7572 13.04C54.7572 13.5742 54.7224 14.055 54.6528 14.4824H44.0859C44.1729 15.5508 44.5381 16.3878 45.1817 16.9933C45.8253 17.5987 46.6167 17.9015 47.556 17.9015C48.9128 17.9015 49.8781 17.3049 50.4521 16.1118H54.3919C53.9744 17.5364 53.1743 18.7117 51.9915 19.6377C50.8087 20.5459 49.3563 21 47.6343 21C46.2428 21 44.9904 20.6884 43.8772 20.0651C42.7813 19.424 41.9203 18.5247 41.2941 17.3672C40.6853 16.2097 40.3809 14.8741 40.3809 13.3605C40.3809 11.829 40.6853 10.4845 41.2941 9.32705C41.9029 8.16955 42.7552 7.27916 43.8511 6.65589C44.9469 6.03262 46.208 5.72099 47.6343 5.72099C49.0084 5.72099 50.2347 6.02372 51.3131 6.62918C52.409 7.23464 53.2526 8.09832 53.844 9.2202C54.4528 10.3243 54.7572 11.5975 54.7572 13.04ZM50.974 11.9715C50.9566 11.0099 50.6174 10.2441 49.9564 9.6743C49.2954 9.08664 48.4866 8.79282 47.5299 8.79282C46.6254 8.79282 45.8601 9.07774 45.2339 9.64759C44.6251 10.1996 44.2511 10.9743 44.112 11.9715H50.974Z" fill="#4A4A4A"/>
<path d="M60.0325 8.25859C60.5021 7.47505 61.1109 6.86068 61.8589 6.41549C62.6242 5.9703 63.4939 5.7477 64.468 5.7477V9.6743H63.5026C62.3546 9.6743 61.4849 9.95032 60.8935 10.5024C60.3195 11.0544 60.0325 12.016 60.0325 13.3872V20.7596H56.3797V5.96139H60.0325V8.25859Z" fill="#4A4A4A"/>
<path d="M64.9454 13.3071C64.9454 11.8112 65.2324 10.4845 65.8064 9.32705C66.3978 8.16955 67.1892 7.27916 68.1807 6.65589C69.1895 6.03262 70.3115 5.72099 71.5465 5.72099C72.6249 5.72099 73.5642 5.94358 74.3643 6.38878C75.1818 6.83397 75.8341 7.39491 76.3211 8.0716V5.96139H80V20.7596H76.3211V18.596C75.8515 19.2905 75.1992 19.8692 74.3643 20.3322C73.5468 20.7774 72.5988 21 71.5204 21C70.3028 21 69.1895 20.6795 68.1807 20.0384C67.1892 19.3973 66.3978 18.498 65.8064 17.3405C65.2324 16.1652 64.9454 14.8207 64.9454 13.3071ZM76.3211 13.3605C76.3211 12.4523 76.1472 11.6777 75.7993 11.0366C75.4514 10.3777 74.9818 9.87909 74.3904 9.54074C73.799 9.18459 73.1641 9.00651 72.4857 9.00651C71.8074 9.00651 71.1812 9.17568 70.6072 9.51403C70.0332 9.85238 69.5635 10.351 69.1982 11.0099C68.8504 11.651 68.6764 12.4167 68.6764 13.3071C68.6764 14.1975 68.8504 14.981 69.1982 15.6577C69.5635 16.3166 70.0332 16.8241 70.6072 17.1802C71.1986 17.5364 71.8248 17.7145 72.4857 17.7145C73.1641 17.7145 73.799 17.5453 74.3904 17.207C74.9818 16.8508 75.4514 16.3522 75.7993 15.7111C76.1472 15.0522 76.3211 14.2687 76.3211 13.3605Z" fill="#4A4A4A"/>
</svg>
