<svg width="22" height="22" viewBox="0 0 22 22" fill="none" xmlns="http://www.w3.org/2000/svg">
<circle cx="11" cy="11" r="10.5" fill="white" stroke="#4A4A4A"/>
<path d="M8.55871 8.49902H6.32574V15.708H8.55871V8.49902Z" fill="#4A4A4A"/>
<path d="M7.43164 7.55255C7.69553 7.5548 7.95412 7.4786 8.17463 7.33362C8.39513 7.18865 8.5676 6.98144 8.67014 6.73828C8.77269 6.49513 8.80069 6.22699 8.75059 5.9679C8.70048 5.7088 8.57455 5.47043 8.38875 5.28304C8.20294 5.09564 7.96566 4.96766 7.70701 4.91535C7.44835 4.86303 7.17998 4.88874 6.93595 4.9892C6.69193 5.08966 6.48325 5.26035 6.3364 5.47961C6.18955 5.69887 6.11114 5.95681 6.11113 6.22071C6.11038 6.39486 6.14394 6.56746 6.2099 6.72864C6.27586 6.88983 6.37292 7.03644 6.49554 7.16012C6.61816 7.28379 6.76394 7.3821 6.92455 7.44944C7.08517 7.51677 7.25749 7.55181 7.43164 7.55255Z" fill="#4A4A4A"/>
<path d="M12.129 11.922C12.129 10.9076 12.5938 10.3068 13.4892 10.3068C14.3847 10.3068 14.702 10.8736 14.702 11.922V15.7079H16.952V11.1456C16.952 9.213 15.8582 8.27788 14.328 8.27788C13.8941 8.27125 13.4659 8.37746 13.0854 8.5861C12.7049 8.79473 12.3851 9.09863 12.1574 9.46803V8.49891H10.0151V15.7079H12.1574L12.129 11.922Z" fill="#4A4A4A"/>
</svg>
