<svg width="101" height="103" viewBox="0 0 101 103" fill="none" xmlns="http://www.w3.org/2000/svg">
<mask id="mask0_12_85" style="mask-type:alpha" maskUnits="userSpaceOnUse" x="0" y="0" width="101" height="103">
<rect x="0.5" y="0.5" width="99.75" height="101.06" fill="#C4C4C4" stroke="black"/>
</mask>
<g mask="url(#mask0_12_85)">
<circle cx="44.5844" cy="46.5249" r="42.5249" fill="#FFD166"/>
<path d="M67.4399 95.8798C61.4191 95.8798 55.5335 94.0943 50.5275 90.7491C45.5215 87.4039 41.6199 82.6494 39.3163 77.0867C37.0126 71.524 36.4103 65.4031 37.5856 59.4981C38.7608 53.5931 41.6608 48.1692 45.9188 43.9125C50.1768 39.6558 55.6015 36.7573 61.5069 35.5838C67.4122 34.4103 73.5329 35.0144 79.0949 37.3197C84.6569 39.625 89.4104 43.5279 92.7541 48.5349C96.0978 53.5419 97.8815 59.428 97.8798 65.4488C97.8703 73.5183 94.6599 81.2544 88.9531 86.9595C83.2464 92.6646 75.5093 95.8727 67.4399 95.8798ZM67.4399 36.7964C61.773 36.7964 56.2333 38.4768 51.5214 41.6252C46.8096 44.7736 43.1371 49.2485 40.9685 54.484C38.7998 59.7196 38.2324 65.4806 39.338 71.0386C40.4435 76.5967 43.1724 81.7021 47.1795 85.7092C51.1867 89.7163 56.292 92.4452 61.8501 93.5507C67.4081 94.6563 73.1692 94.0889 78.4047 91.9203C83.6403 89.7516 88.1152 86.0792 91.2635 81.3673C94.4119 76.6554 96.0924 71.1158 96.0924 65.4488C96.0853 57.8519 93.0642 50.5682 87.6924 45.1963C82.3206 39.8245 75.0368 36.8035 67.4399 36.7964Z" fill="black" stroke="black" stroke-width="0.5"/>
<path d="M91.7139 74.0375H80.748L78.7729 64.6267H56.0994L54.1153 74.0375H43.1763L42.9707 73.4208C41.7102 69.5568 41.3827 65.4492 42.015 61.4343C42.6473 57.4193 44.2214 53.6112 46.6085 50.3216C48.9956 47.0321 52.1278 44.3545 55.7487 42.5083C59.3696 40.662 63.3762 39.6995 67.4406 39.6995C71.505 39.6995 75.5117 40.662 79.1326 42.5083C82.7534 44.3545 85.8856 47.0321 88.2727 50.3216C90.6598 53.6112 92.2339 57.4193 92.8662 61.4343C93.4985 65.4492 93.171 69.5568 91.9105 73.4208L91.7139 74.0375ZM82.2048 72.25H90.4001C91.0592 70.0432 91.3934 67.7521 91.3921 65.4489C91.3951 62.0114 90.6581 58.6135 89.2312 55.4861C87.8043 52.3588 85.7209 49.5751 83.1227 47.3244C80.5244 45.0738 77.4721 43.4087 74.1732 42.4425C70.8743 41.4762 67.406 41.2314 64.0041 41.7246C60.6021 42.2178 57.3462 43.4375 54.4575 45.3009C51.5688 47.1642 49.115 49.6275 47.2629 52.5234C45.4108 55.4193 44.2038 58.6799 43.7238 62.0838C43.2438 65.4876 43.5021 68.9549 44.4811 72.25H52.6854L54.6605 62.8392H80.2297L82.2048 72.25Z" fill="black" stroke="black" stroke-width="0.5"/>
<path d="M79.8982 84.8157H54.9815V78.3452H79.8982V84.8157ZM56.7689 83.0283H78.1108V80.1326H56.7689V83.0283Z" fill="black" stroke="black" stroke-width="0.5"/>
<path d="M60.6476 79.2208H58.8602V83.9217H60.6476V79.2208Z" fill="black" stroke="black" stroke-width="0.5"/>
<path d="M64.5177 79.2208H62.7302V83.9217H64.5177V79.2208Z" fill="black" stroke="black" stroke-width="0.5"/>
<path d="M68.3887 79.2208H66.6013V83.9217H68.3887V79.2208Z" fill="black" stroke="black" stroke-width="0.5"/>
<path d="M72.2567 79.2208H70.4692V83.9217H72.2567V79.2208Z" fill="black" stroke="black" stroke-width="0.5"/>
<path d="M76.1267 79.2208H74.3392V83.9217H76.1267V79.2208Z" fill="black" stroke="black" stroke-width="0.5"/>
<path d="M48.2884 64.5549H42.6044V66.3424H48.2884V64.5549Z" fill="black" stroke="black" stroke-width="0.5"/>
<path d="M44.8468 57.9415L44.382 59.6753L49.8955 61.1531L50.3602 59.4193L44.8468 57.9415Z" fill="black" stroke="black" stroke-width="0.5"/>
<path d="M46.3738 52.2663L45.48 53.8142L50.4026 56.6562L51.2963 55.1083L46.3738 52.2663Z" fill="black" stroke="black" stroke-width="0.5"/>
<path d="M50.5126 47.2346L49.2487 48.4985L53.2679 52.5177L54.5318 51.2538L50.5126 47.2346Z" fill="black" stroke="black" stroke-width="0.5"/>
<path d="M55.7938 43.4915L54.2458 44.3853L57.0879 49.3077L58.6358 48.414L55.7938 43.4915Z" fill="black" stroke="black" stroke-width="0.5"/>
<path d="M61.8648 41.2321L60.1383 41.6947L61.6094 47.1851L63.336 46.7224L61.8648 41.2321Z" fill="black" stroke="black" stroke-width="0.5"/>
<path d="M68.3338 40.6039H66.5463V46.2879H68.3338V40.6039Z" fill="black" stroke="black" stroke-width="0.5"/>
<path d="M73.0038 41.2193L71.5327 46.7096L73.2592 47.1722L74.7304 41.6819L73.0038 41.2193Z" fill="black" stroke="black" stroke-width="0.5"/>
<path d="M79.0926 43.5105L76.2505 48.433L77.7985 49.3267L80.6405 44.4042L79.0926 43.5105Z" fill="black" stroke="black" stroke-width="0.5"/>
<path d="M84.376 47.2484L80.3568 51.2676L81.6207 52.5315L85.6399 48.5123L84.376 47.2484Z" fill="black" stroke="black" stroke-width="0.5"/>
<path d="M88.5048 52.2668L83.5818 55.1079L84.4753 56.656L89.3983 53.8149L88.5048 52.2668Z" fill="black" stroke="black" stroke-width="0.5"/>
<path d="M91.2035 58.1546L85.7132 59.6257L86.1758 61.3523L91.6662 59.8811L91.2035 58.1546Z" fill="black" stroke="black" stroke-width="0.5"/>
<path d="M92.2849 64.5549H86.6009V66.3424H92.2849V64.5549Z" fill="black" stroke="black" stroke-width="0.5"/>
<path d="M66.5993 64.4567L53.1668 54.1522L52.8093 54.5901L62.2648 63.1161L61.0672 64.4478L50.3337 54.7688L52.8987 51.6855L67.6897 63.0357L66.5993 64.4567Z" fill="black" stroke="black" stroke-width="0.5"/>
</g>
</svg>
