<svg width="101" height="103" viewBox="0 0 101 103" fill="none" xmlns="http://www.w3.org/2000/svg">
<mask id="mask0_12_65" style="mask-type:alpha" maskUnits="userSpaceOnUse" x="0" y="0" width="101" height="103">
<rect x="0.5" y="0.5" width="99.75" height="101.06" fill="#C4C4C4" stroke="black"/>
</mask>
<g mask="url(#mask0_12_65)">
<circle cx="43.5844" cy="50.5249" r="42.5249" fill="#96F7D2"/>
<path d="M83.4474 77.1043H53.4795C53.167 77.1043 52.8673 76.9802 52.6463 76.7594C52.4254 76.5385 52.3013 76.239 52.3013 75.9266C52.3013 75.6143 52.4254 75.3147 52.6463 75.0939C52.8673 74.873 53.167 74.7489 53.4795 74.7489H82.2692V53.4648H53.4795C53.167 53.4648 52.8673 53.3407 52.6463 53.1199C52.4254 52.899 52.3013 52.5994 52.3013 52.2871C52.3013 51.9747 52.4254 51.6752 52.6463 51.4543C52.8673 51.2334 53.167 51.1094 53.4795 51.1094H83.4474C83.7599 51.1094 84.0596 51.2334 84.2806 51.4543C84.5016 51.6752 84.6257 51.9747 84.6257 52.2871V75.9266C84.6257 76.239 84.5016 76.5385 84.2806 76.7594C84.0596 76.9802 83.7599 77.1043 83.4474 77.1043Z" fill="black"/>
<path d="M60.9758 72.496C60.759 72.4976 60.5461 72.4385 60.3611 72.3253C60.2286 72.2448 60.1133 72.139 60.0218 72.0138C59.9304 71.8887 59.8645 71.7467 59.828 71.5961C59.7915 71.4454 59.7851 71.2891 59.8092 71.136C59.8333 70.9829 59.8874 70.836 59.9684 70.7038C61.1424 68.7065 61.7614 66.432 61.7614 64.1155C61.7614 61.799 61.1424 59.5245 59.9684 57.5271C59.8874 57.395 59.8333 57.2481 59.8092 57.095C59.7851 56.9419 59.7915 56.7855 59.828 56.6349C59.8645 56.4842 59.9304 56.3423 60.0218 56.2171C60.1133 56.092 60.2286 55.9862 60.3611 55.9057C60.6261 55.7406 60.9458 55.6875 61.2499 55.7579C61.5541 55.8283 61.8179 56.0165 61.9833 56.2812C63.3867 58.6506 64.1271 61.3534 64.1271 64.1069C64.1271 66.8605 63.3867 69.5634 61.9833 71.9328C61.8766 72.104 61.7283 72.2455 61.5521 72.344C61.376 72.4425 61.1777 72.4948 60.9758 72.496Z" fill="black"/>
<path d="M53.4795 60.5822C53.167 60.5822 52.8673 60.4581 52.6463 60.2373C52.4254 60.0164 52.3013 59.7169 52.3013 59.4045V58.4316C52.3013 58.1193 52.4254 57.8197 52.6463 57.5989C52.8673 57.378 53.167 57.2539 53.4795 57.2539C53.792 57.2539 54.0916 57.378 54.3126 57.5989C54.5335 57.8197 54.6577 58.1193 54.6577 58.4316V59.3874C54.66 59.5435 54.6312 59.6985 54.573 59.8434C54.5148 59.9882 54.4283 60.1201 54.3187 60.2313C54.209 60.3424 54.0784 60.4307 53.9344 60.491C53.7903 60.5512 53.6357 60.5822 53.4795 60.5822Z" fill="black"/>
<path d="M53.4794 70.0039C53.004 70.0153 52.531 69.9329 52.0874 69.7614C51.6438 69.59 51.2384 69.3328 50.8943 69.0047C50.5502 68.6766 50.2741 68.284 50.0819 67.8492C49.8897 67.4144 49.785 66.946 49.7739 66.4708C49.7739 66.1585 49.898 65.8589 50.119 65.638C50.34 65.4172 50.6397 65.2931 50.9522 65.2931C51.2646 65.2931 51.5644 65.4172 51.7853 65.638C52.0063 65.8589 52.1304 66.1585 52.1304 66.4708C52.0921 66.7464 52.139 67.0271 52.2648 67.2754C52.3906 67.5236 52.5892 67.7276 52.8341 67.8598C53.079 67.9921 53.3585 68.0465 53.6352 68.0156C53.9118 67.9847 54.1724 67.87 54.3821 67.687C54.5918 67.5039 54.7405 67.2612 54.8083 66.9913C54.8762 66.7214 54.8599 66.4373 54.7617 66.1769C54.6636 65.9165 54.4881 65.6924 54.2589 65.5344C54.0297 65.3765 53.7578 65.2923 53.4794 65.2931C52.7886 65.2597 52.1227 65.0244 51.5643 64.6165C51.0059 64.2085 50.5795 63.6457 50.338 62.9979C50.0964 62.3501 50.0504 61.6457 50.2055 60.972C50.3605 60.2982 50.7099 59.6848 51.2104 59.2076C51.7108 58.7304 52.3404 58.4104 53.021 58.2874C53.7016 58.1643 54.4034 58.2435 55.0393 58.5152C55.6753 58.787 56.2176 59.2392 56.5989 59.8159C56.9803 60.3927 57.184 61.0686 57.1848 61.7599C57.1848 62.0723 57.0607 62.3718 56.8397 62.5927C56.6188 62.8136 56.3191 62.9377 56.0066 62.9377C55.6941 62.9377 55.3944 62.8136 55.1735 62.5927C54.9525 62.3718 54.8283 62.0723 54.8283 61.7599C54.8666 61.4843 54.8198 61.2036 54.694 60.9553C54.5682 60.7071 54.3696 60.5032 54.1247 60.3709C53.8798 60.2386 53.6002 60.1843 53.3236 60.2152C53.0469 60.2461 52.7863 60.3607 52.5766 60.5438C52.367 60.7268 52.2183 60.9696 52.1504 61.2394C52.0826 61.5093 52.0988 61.7934 52.197 62.0538C52.2952 62.3142 52.4706 62.5384 52.6998 62.6963C52.929 62.8543 53.201 62.9385 53.4794 62.9377C53.9436 62.9377 54.4032 63.0291 54.832 63.2066C55.2609 63.3842 55.6506 63.6444 55.9788 63.9725C56.307 64.3006 56.5674 64.6901 56.745 65.1187C56.9226 65.5474 57.0141 66.0068 57.0141 66.4708C57.0141 66.9348 56.9226 67.3942 56.745 67.8229C56.5674 68.2515 56.307 68.641 55.9788 68.9691C55.6506 69.2972 55.2609 69.5574 54.832 69.735C54.4032 69.9125 53.9436 70.0039 53.4794 70.0039Z" fill="black"/>
<path d="M53.4795 71.0794C53.167 71.0794 52.8673 70.9553 52.6463 70.7345C52.4254 70.5136 52.3013 70.2141 52.3013 69.9017V68.8264C52.3013 68.5141 52.4254 68.2145 52.6463 67.9936C52.8673 67.7728 53.167 67.6487 53.4795 67.6487C53.792 67.6487 54.0916 67.7728 54.3126 67.9936C54.5335 68.2145 54.6577 68.5141 54.6577 68.8264V69.9017C54.6577 70.2141 54.5335 70.5136 54.3126 70.7345C54.0916 70.9553 53.792 71.0794 53.4795 71.0794Z" fill="black"/>
<path d="M72.8607 65.259H68.4722C68.1597 65.259 67.86 65.1349 67.639 64.914C67.4181 64.6932 67.2939 64.3936 67.2939 64.0813C67.2939 63.7689 67.4181 63.4694 67.639 63.2485C67.86 63.0277 68.1597 62.9036 68.4722 62.9036H72.8607C73.1732 62.9036 73.4729 63.0277 73.6939 63.2485C73.9148 63.4694 74.0389 63.7689 74.0389 64.0813C74.0389 64.3936 73.9148 64.6932 73.6939 64.914C73.4729 65.1349 73.1732 65.259 72.8607 65.259Z" fill="black"/>
<path d="M75.558 72.4959H67.7202C67.4077 72.4959 67.108 72.3718 66.8871 72.151C66.6661 71.9301 66.542 71.6305 66.542 71.3182C66.542 71.0058 66.6661 70.7063 66.8871 70.4854C67.108 70.2646 67.4077 70.1405 67.7202 70.1405H74.5506C74.7376 69.5614 75.0596 69.035 75.4901 68.6047C75.9206 68.1744 76.4472 67.8525 77.0265 67.6656V60.5652C76.4491 60.3746 75.9245 60.0514 75.4945 59.6217C75.0645 59.1919 74.7412 58.6674 74.5506 58.0903H67.7202C67.4077 58.0903 67.108 57.9662 66.8871 57.7453C66.6661 57.5245 66.542 57.2249 66.542 56.9126C66.542 56.6002 66.6661 56.3007 66.8871 56.0798C67.108 55.859 67.4077 55.7349 67.7202 55.7349H75.558C75.8705 55.7349 76.1702 55.859 76.3912 56.0798C76.6121 56.3007 76.7363 56.6002 76.7363 56.9126C76.7363 57.1076 76.7747 57.3007 76.8493 57.4808C76.924 57.661 77.0334 57.8247 77.1714 57.9626C77.3093 58.1005 77.4731 58.2099 77.6533 58.2845C77.8336 58.3591 78.0268 58.3975 78.2218 58.3975C78.5343 58.3975 78.834 58.5216 79.055 58.7425C79.276 58.9633 79.4001 59.2629 79.4001 59.5752V68.6726C79.4001 68.985 79.276 69.2845 79.055 69.5054C78.834 69.7262 78.5343 69.8503 78.2218 69.8503C78.0268 69.8503 77.8336 69.8887 77.6533 69.9634C77.4731 70.038 77.3093 70.1474 77.1714 70.2853C77.0334 70.4232 76.924 70.5868 76.8493 70.767C76.7747 70.9472 76.7363 71.1403 76.7363 71.3353C76.7318 71.6446 76.6057 71.9398 76.3852 72.157C76.1647 72.3742 75.8676 72.4959 75.558 72.4959Z" fill="black"/>
<path d="M65.0736 100.044H36.8303C35.0188 100.044 33.2815 99.3248 32.0005 98.0445C30.7196 96.7641 30 95.0276 30 93.2169V39.8273C30 38.0166 30.7196 36.28 32.0005 34.9997C33.2815 33.7193 35.0188 33 36.8303 33H65.0736C66.8851 33 68.6225 33.7193 69.9034 34.9997C71.1843 36.28 71.9039 38.0166 71.9039 39.8273V48.4468C71.9039 48.7591 71.7798 49.0587 71.5588 49.2795C71.3379 49.5004 71.0382 49.6245 70.7257 49.6245C70.4133 49.6245 70.1136 49.5004 69.8926 49.2795C69.6716 49.0587 69.5475 48.7591 69.5475 48.4468V39.8273C69.5475 38.6413 69.0761 37.5038 68.2371 36.6652C67.3981 35.8265 66.2602 35.3554 65.0736 35.3554H36.8303C35.6438 35.3554 34.5058 35.8265 33.6668 36.6652C32.8278 37.5038 32.3565 38.6413 32.3565 39.8273V93.2339C32.361 94.4185 32.8337 95.5534 33.6718 96.3911C34.5098 97.2287 35.6452 97.7013 36.8303 97.7058H65.0736C65.6611 97.7058 66.2429 97.5901 66.7857 97.3654C67.3285 97.1407 67.8217 96.8113 68.2371 96.396C68.6526 95.9808 68.9821 95.4878 69.207 94.9452C69.4318 94.4027 69.5475 93.8212 69.5475 93.2339V80.2108C69.5475 79.8985 69.6716 79.5989 69.8926 79.3781C70.1136 79.1572 70.4133 79.0331 70.7257 79.0331C71.0382 79.0331 71.3379 79.1572 71.5588 79.3781C71.7798 79.5989 71.9039 79.8985 71.9039 80.2108V93.2339C71.8994 95.0417 71.1778 96.7738 69.8974 98.0505C68.6169 99.3272 66.8822 100.044 65.0736 100.044Z" fill="black"/>
<path d="M60.668 41.3635H41.2358C40.4251 41.3635 39.6477 41.0416 39.0745 40.4686C38.5013 39.8957 38.1792 39.1186 38.1792 38.3083V34.1948C38.1792 33.8825 38.3034 33.5829 38.5243 33.362C38.7453 33.1412 39.0449 33.0171 39.3574 33.0171H62.5464C62.8589 33.0171 63.1585 33.1412 63.3795 33.362C63.6004 33.5829 63.7246 33.8825 63.7246 34.1948V38.3083C63.7246 39.1186 63.4026 39.8957 62.8293 40.4686C62.2561 41.0416 61.4787 41.3635 60.668 41.3635ZM40.5357 35.3725V38.3083C40.5357 38.4002 40.5538 38.4911 40.589 38.576C40.6242 38.6609 40.6757 38.7381 40.7407 38.8031C40.8057 38.8681 40.8829 38.9196 40.9679 38.9548C41.0528 38.9899 41.1438 39.008 41.2358 39.008H60.668C60.8537 39.008 61.0318 38.9343 61.1631 38.8031C61.2944 38.6718 61.3681 38.4939 61.3681 38.3083V35.3725H40.5357Z" fill="black"/>
<path d="M61.8976 95.3503H38.3843C38.0718 95.3503 37.7721 95.2262 37.5511 95.0054C37.3302 94.7845 37.2061 94.4849 37.2061 94.1726C37.2061 93.8602 37.3302 93.5607 37.5511 93.3398C37.7721 93.119 38.0718 92.9949 38.3843 92.9949H61.8976C62.2101 92.9949 62.5098 93.119 62.7308 93.3398C62.9517 93.5607 63.0759 93.8602 63.0759 94.1726C63.0759 94.4849 62.9517 94.7845 62.7308 95.0054C62.5098 95.2262 62.2101 95.3503 61.8976 95.3503Z" fill="black"/>
<path d="M99.4644 65.259H88.8774C88.565 65.259 88.2653 65.1349 88.0443 64.914C87.8234 64.6932 87.6992 64.3936 87.6992 64.0813C87.6992 63.7689 87.8234 63.4694 88.0443 63.2485C88.2653 63.0277 88.565 62.9036 88.8774 62.9036H99.4644C99.7769 62.9036 100.077 63.0277 100.298 63.2485C100.519 63.4694 100.643 63.7689 100.643 64.0813C100.643 64.3936 100.519 64.6932 100.298 64.914C100.077 65.1349 99.7769 65.259 99.4644 65.259Z" fill="black"/>
<path d="M94.1373 56.9126H88.1778C87.8653 56.9126 87.5656 56.7885 87.3446 56.5676C87.1236 56.3467 86.9995 56.0472 86.9995 55.7348C86.9995 55.4225 87.1236 55.1229 87.3446 54.9021C87.5656 54.6812 87.8653 54.5571 88.1778 54.5571H94.1373C94.4498 54.5571 94.7494 54.6812 94.9704 54.9021C95.1914 55.1229 95.3156 55.4225 95.3156 55.7348C95.3156 56.0472 95.1914 56.3467 94.9704 56.5676C94.7494 56.7885 94.4498 56.9126 94.1373 56.9126Z" fill="black"/>
<path d="M94.1373 73.6567H88.1778C87.8653 73.6567 87.5656 73.5326 87.3446 73.3118C87.1236 73.0909 86.9995 72.7913 86.9995 72.479C86.9995 72.1666 87.1236 71.8671 87.3446 71.6462C87.5656 71.4254 87.8653 71.3013 88.1778 71.3013H94.1373C94.4498 71.3013 94.7494 71.4254 94.9704 71.6462C95.1914 71.8671 95.3156 72.1666 95.3156 72.479C95.3156 72.7913 95.1914 73.0909 94.9704 73.3118C94.7494 73.5326 94.4498 73.6567 94.1373 73.6567Z" fill="black"/>
</g>
</svg>
