<svg width="101" height="103" viewBox="0 0 101 103" fill="none" xmlns="http://www.w3.org/2000/svg">
<mask id="mask0_45_392" style="mask-type:alpha" maskUnits="userSpaceOnUse" x="0" y="0" width="101" height="103">
<rect width="100.75" height="102.06" fill="#C4C4C4"/>
</mask>
<g mask="url(#mask0_45_392)">
<circle cx="47.5844" cy="50.5249" r="42.5249" fill="#FFD166"/>
<path d="M89.6014 89.1999H26.1253C24.7664 89.1987 23.4634 88.6583 22.5025 87.6974C21.5416 86.7365 21.0012 85.4335 21 84.0746V44.1253C21.0012 42.7663 21.5416 41.4634 22.5025 40.5025C23.4634 39.5416 24.7664 39.0012 26.1253 39H89.6014C90.9602 39.0016 92.2629 39.5422 93.2237 40.503C94.1845 41.4638 94.725 42.7665 94.7267 44.1253V84.0746C94.725 85.4334 94.1845 86.7361 93.2237 87.6969C92.2629 88.6577 90.9602 89.1983 89.6014 89.1999ZM26.1253 41.3304C25.3822 41.3312 24.6699 41.6267 24.1444 42.1522C23.619 42.6776 23.3235 43.39 23.3226 44.133V84.0824C23.3235 84.8254 23.619 85.5378 24.1444 86.0632C24.6699 86.5886 25.3822 86.8842 26.1253 86.885H89.6014C90.3444 86.8842 91.0568 86.5886 91.5822 86.0632C92.1077 85.5378 92.4032 84.8254 92.404 84.0824V44.133C92.4032 43.39 92.1077 42.6776 91.5822 42.1522C91.0568 41.6267 90.3444 41.3312 89.6014 41.3304H26.1253Z" fill="#2E2E2E"/>
<path d="M31.9849 89.2C31.6769 89.2 31.3815 89.0776 31.1637 88.8598C30.9459 88.642 30.8235 88.3466 30.8235 88.0386V40.1691C30.8235 39.8611 30.9459 39.5657 31.1637 39.348C31.3815 39.1302 31.6769 39.0078 31.9849 39.0078C32.2929 39.0078 32.5882 39.1302 32.806 39.348C33.0238 39.5657 33.1462 39.8611 33.1462 40.1691V88.0386C33.1462 88.3466 33.0238 88.642 32.806 88.8598C32.5882 89.0776 32.2929 89.2 31.9849 89.2Z" fill="#2E2E2E"/>
<path d="M27.0182 67.553C26.7102 67.553 26.4148 67.4306 26.197 67.2128C25.9792 66.995 25.8569 66.6997 25.8569 66.3917V61.8145C25.8569 61.5065 25.9792 61.2111 26.197 60.9934C26.4148 60.7756 26.7102 60.6532 27.0182 60.6532C27.3262 60.6532 27.6216 60.7756 27.8394 60.9934C28.0571 61.2111 28.1795 61.5065 28.1795 61.8145V66.3917C28.1795 66.6997 28.0571 66.995 27.8394 67.2128C27.6216 67.4306 27.3262 67.553 27.0182 67.553Z" fill="#2E2E2E"/>
<path d="M45.1071 56.7047C44.1824 56.705 43.2785 56.4311 42.5095 55.9177C41.7406 55.4042 41.1411 54.6742 40.7871 53.8201C40.433 52.9659 40.3403 52.0259 40.5205 51.119C40.7007 50.2121 41.1458 49.379 41.7995 48.7251C42.4532 48.0712 43.2861 47.6258 44.1929 47.4453C45.0998 47.2648 46.0398 47.3573 46.8941 47.711C47.7483 48.0648 48.4785 48.664 48.9923 49.4328C49.506 50.2016 49.7802 51.1054 49.7802 52.0301C49.779 53.2692 49.2863 54.4573 48.4102 55.3336C47.5341 56.21 46.3462 56.7031 45.1071 56.7047ZM45.1071 49.6795C44.6417 49.6792 44.1868 49.817 43.7997 50.0753C43.4127 50.3336 43.111 50.7009 42.9328 51.1308C42.7546 51.5606 42.7079 52.0337 42.7986 52.4901C42.8893 52.9465 43.1133 53.3657 43.4424 53.6948C43.7714 54.0238 44.1906 54.2478 44.647 54.3385C45.1034 54.4292 45.5764 54.3825 46.0063 54.2043C46.4361 54.0261 46.8035 53.7244 47.0618 53.3374C47.3201 52.9503 47.4579 52.4954 47.4576 52.0301C47.4567 51.4069 47.2088 50.8095 46.7682 50.3689C46.3276 49.9283 45.7302 49.6804 45.1071 49.6795Z" fill="#2E2E2E"/>
<path d="M62.6135 56.7047C61.6889 56.705 60.7849 56.4311 60.016 55.9177C59.247 55.4042 58.6476 54.6742 58.2936 53.8201C57.9395 52.9659 57.8467 52.0259 58.0269 51.119C58.2071 50.2121 58.6522 49.379 59.3059 48.7251C59.9596 48.0712 60.7926 47.6258 61.6994 47.4453C62.6063 47.2648 63.5463 47.3573 64.4006 47.711C65.2548 48.0648 65.985 48.664 66.4988 49.4328C67.0125 50.2016 67.2867 51.1054 67.2867 52.0301C67.2855 53.2692 66.7928 54.4573 65.9167 55.3336C65.0406 56.21 63.8527 56.7031 62.6135 56.7047ZM62.6135 49.6795C62.1482 49.6792 61.6932 49.817 61.3062 50.0753C60.9192 50.3336 60.6175 50.7009 60.4393 51.1308C60.261 51.5606 60.2144 52.0337 60.3051 52.4901C60.3958 52.9465 60.6198 53.3657 60.9489 53.6948C61.2779 54.0238 61.6971 54.2478 62.1535 54.3385C62.6099 54.4292 63.0829 54.3825 63.5128 54.2043C63.9426 54.0261 64.31 53.7244 64.5683 53.3374C64.8266 52.9503 64.9644 52.4954 64.9641 52.0301C64.9632 51.4069 64.7153 50.8095 64.2747 50.3689C63.834 49.9283 63.2367 49.6804 62.6135 49.6795Z" fill="#2E2E2E"/>
<path d="M80.12 56.7047C79.1954 56.705 78.2914 56.4311 77.5224 55.9177C76.7535 55.4042 76.1541 54.6742 75.8001 53.8201C75.446 52.9659 75.3532 52.0259 75.5334 51.119C75.7136 50.2121 76.1587 49.379 76.8124 48.7251C77.4661 48.0712 78.2991 47.6258 79.2059 47.4453C80.1127 47.2648 81.0527 47.3573 81.907 47.711C82.7613 48.0648 83.4915 48.664 84.0052 49.4328C84.5189 50.2016 84.7931 51.1054 84.7931 52.0301C84.7919 53.2692 84.2992 54.4573 83.4231 55.3336C82.5471 56.21 81.3591 56.7031 80.12 56.7047ZM80.12 49.6795C79.6547 49.6792 79.1997 49.817 78.8127 50.0753C78.4256 50.3336 78.1239 50.7009 77.9457 51.1308C77.7675 51.5606 77.7208 52.0337 77.8115 52.4901C77.9022 52.9465 78.1262 53.3657 78.4553 53.6948C78.7843 54.0238 79.2036 54.2478 79.66 54.3385C80.1164 54.4292 80.5894 54.3825 81.0193 54.2043C81.4491 54.0261 81.8164 53.7244 82.0748 53.3374C82.3331 52.9503 82.4708 52.4954 82.4705 52.0301C82.4697 51.4069 82.2218 50.8095 81.7811 50.3689C81.3405 49.9283 80.7431 49.6804 80.12 49.6795Z" fill="#2E2E2E"/>
<path d="M48.6158 61.1023H41.5921C41.2841 61.1023 40.9888 60.98 40.771 60.7622C40.5532 60.5444 40.4308 60.249 40.4308 59.941C40.4308 59.633 40.5532 59.3376 40.771 59.1198C40.9888 58.902 41.2841 58.7797 41.5921 58.7797H48.6158C48.9238 58.7797 49.2192 58.902 49.437 59.1198C49.6548 59.3376 49.7771 59.633 49.7771 59.941C49.7771 60.249 49.6548 60.5444 49.437 60.7622C49.2192 60.98 48.9238 61.1023 48.6158 61.1023Z" fill="#2E2E2E"/>
<path d="M46.312 65.266H41.5955C41.2875 65.266 40.9921 65.1436 40.7743 64.9259C40.5565 64.7081 40.4341 64.4127 40.4341 64.1047C40.4341 63.7967 40.5565 63.5013 40.7743 63.2835C40.9921 63.0657 41.2875 62.9434 41.5955 62.9434H46.312C46.62 62.9434 46.9154 63.0657 47.1332 63.2835C47.3509 63.5013 47.4733 63.7967 47.4733 64.1047C47.4733 64.4127 47.3509 64.7081 47.1332 64.9259C46.9154 65.1436 46.62 65.266 46.312 65.266Z" fill="#2E2E2E"/>
<path d="M63.8184 65.266H59.1019C58.7939 65.266 58.4986 65.1436 58.2808 64.9259C58.063 64.7081 57.9406 64.4127 57.9406 64.1047C57.9406 63.7967 58.063 63.5013 58.2808 63.2835C58.4986 63.0657 58.7939 62.9434 59.1019 62.9434H63.8184C64.1264 62.9434 64.4218 63.0657 64.6396 63.2835C64.8574 63.5013 64.9797 63.7967 64.9797 64.1047C64.9797 64.4127 64.8574 64.7081 64.6396 64.9259C64.4218 65.1436 64.1264 65.266 63.8184 65.266Z" fill="#2E2E2E"/>
<path d="M81.3233 65.266H76.6084C76.3004 65.266 76.005 65.1436 75.7872 64.9259C75.5694 64.7081 75.4471 64.4127 75.4471 64.1047C75.4471 63.7967 75.5694 63.5013 75.7872 63.2835C76.005 63.0657 76.3004 62.9434 76.6084 62.9434H81.3233C81.6313 62.9434 81.9267 63.0657 82.1445 63.2835C82.3623 63.5013 82.4847 63.7967 82.4847 64.1047C82.4847 64.4127 82.3623 64.7081 82.1445 64.9259C81.9267 65.1436 81.6313 65.266 81.3233 65.266Z" fill="#2E2E2E"/>
<path d="M66.1256 61.1023H59.1019C58.7939 61.1023 58.4986 60.98 58.2808 60.7622C58.063 60.5444 57.9406 60.249 57.9406 59.941C57.9406 59.633 58.063 59.3376 58.2808 59.1198C58.4986 58.902 58.7939 58.7797 59.1019 58.7797H66.1256C66.4336 58.7797 66.729 58.902 66.9468 59.1198C67.1645 59.3376 67.2869 59.633 67.2869 59.941C67.2869 60.249 67.1645 60.5444 66.9468 60.7622C66.729 60.98 66.4336 61.1023 66.1256 61.1023Z" fill="#2E2E2E"/>
<path d="M83.632 61.1023H76.6084C76.3004 61.1023 76.005 60.98 75.7872 60.7622C75.5694 60.5444 75.4471 60.249 75.4471 59.941C75.4471 59.633 75.5694 59.3376 75.7872 59.1198C76.005 58.902 76.3004 58.7797 76.6084 58.7797H83.632C83.94 58.7797 84.2354 58.902 84.4532 59.1198C84.671 59.3376 84.7933 59.633 84.7933 59.941C84.7933 60.249 84.671 60.5444 84.4532 60.7622C84.2354 60.98 83.94 61.1023 83.632 61.1023Z" fill="#2E2E2E"/>
<path d="M38.8236 82.7351C38.5721 82.7361 38.3272 82.6554 38.1256 82.5051C37.924 82.3548 37.7767 82.143 37.706 81.9017C37.6352 81.6604 37.6448 81.4027 37.7333 81.1673C37.8217 80.9319 37.9843 80.7317 38.1965 80.5967L42.9656 77.5432C43.1128 77.4491 43.2793 77.3894 43.4528 77.3685C43.6262 77.3476 43.8021 77.366 43.9674 77.4225L48.8636 79.0948L54.5927 76.1651C54.7582 76.079 54.942 76.034 55.1285 76.034C55.315 76.034 55.4988 76.079 55.6642 76.1651L61.0729 79.022L66.6302 73.5173C66.8321 73.3177 67.1001 73.1988 67.3836 73.1831C67.6671 73.1674 67.9466 73.256 68.1693 73.4322L73.5222 77.6748L79.2127 71.9952C79.3072 71.9008 79.4171 71.8233 79.5378 71.7661L85.7904 68.8241C85.9289 68.754 86.0799 68.7125 86.2347 68.7018C86.3895 68.6912 86.5449 68.7117 86.6917 68.7621C86.8384 68.8125 86.9736 68.8918 87.0892 68.9953C87.2047 69.0988 87.2984 69.2244 87.3647 69.3647C87.4309 69.5051 87.4683 69.6572 87.4747 69.8123C87.4812 69.9673 87.4565 70.122 87.4021 70.2674C87.3478 70.4127 87.2648 70.5456 87.1582 70.6584C87.0516 70.7711 86.9234 70.8613 86.7814 70.9237L80.7115 73.7883L74.4311 80.0563C74.2295 80.2596 73.9597 80.3811 73.6739 80.3973C73.388 80.4136 73.1062 80.3236 72.8827 80.1446L67.5252 75.9004L62.0949 81.2796C61.9193 81.4537 61.6928 81.5673 61.4483 81.6037C61.2038 81.6402 60.954 81.5977 60.7353 81.4824L55.1052 78.5079L49.4798 81.3864C49.3413 81.4575 49.1898 81.5 49.0344 81.5115C48.8791 81.5229 48.7231 81.503 48.5756 81.453L43.7429 79.8024L39.4445 82.5524C39.2592 82.6712 39.0437 82.7346 38.8236 82.7351Z" fill="#2E2E2E"/>
</g>
</svg>
