<svg width="101" height="103" viewBox="0 0 101 103" fill="none" xmlns="http://www.w3.org/2000/svg">
<mask id="mask0_12_5" style="mask-type:alpha" maskUnits="userSpaceOnUse" x="0" y="0" width="101" height="103">
<rect x="0.5" y="0.5" width="99.75" height="101.06" fill="#C4C4C4" stroke="black"/>
</mask>
<g mask="url(#mask0_12_5)">
<circle cx="43.5844" cy="46.5249" r="42.5249" fill="#96F7D2"/>
<path d="M54.9269 51.8573C53.7694 51.8573 52.6593 51.3925 51.8408 50.5652C51.0223 49.7378 50.5625 48.6157 50.5625 47.4457C50.5625 47.134 50.6849 46.8351 50.903 46.6146C51.1211 46.3942 51.4168 46.2704 51.7252 46.2704C52.0336 46.2704 52.3293 46.3942 52.5474 46.6146C52.7654 46.8351 52.8879 47.134 52.8879 47.4457C52.8879 47.8533 53.0075 48.2518 53.2316 48.5907C53.4556 48.9297 53.7741 49.1938 54.1466 49.3498C54.5192 49.5058 54.9292 49.5466 55.3247 49.4671C55.7202 49.3876 56.0835 49.1913 56.3687 48.9031C56.6539 48.6148 56.8481 48.2476 56.9268 47.8478C57.0054 47.448 56.965 47.0336 56.8107 46.657C56.6564 46.2804 56.395 45.9585 56.0597 45.732C55.7244 45.5056 55.3302 45.3847 54.9269 45.3847C54.0637 45.3847 53.2199 45.126 52.5021 44.6412C51.7844 44.1565 51.225 43.4675 50.8947 42.6613C50.5643 41.8552 50.4779 40.9682 50.6463 40.1125C50.8147 39.2567 51.2304 38.4706 51.8408 37.8536C52.4512 37.2367 53.2288 36.8165 54.0755 36.6463C54.9221 36.4761 55.7996 36.5634 56.5971 36.8973C57.3946 37.2312 58.0763 37.7967 58.5558 38.5222C59.0354 39.2476 59.2914 40.1006 59.2914 40.9731C59.2914 41.2848 59.1689 41.5838 58.9508 41.8042C58.7328 42.0246 58.437 42.1484 58.1286 42.1484C57.8203 42.1484 57.5246 42.0246 57.3065 41.8042C57.0884 41.5838 56.9659 41.2848 56.9659 40.9731C56.9692 40.5648 56.8525 40.1646 56.6305 39.8235C56.4085 39.4823 56.0913 39.2155 55.719 39.0569C55.3467 38.8983 54.9362 38.855 54.5396 38.9326C54.1429 39.0102 53.7781 39.2051 53.4912 39.4927C53.2044 39.7802 53.0085 40.1474 52.9284 40.5477C52.8484 40.9479 52.8878 41.3632 53.0416 41.7408C53.1954 42.1184 53.4567 42.4413 53.7924 42.6685C54.1281 42.8958 54.5229 43.0171 54.9269 43.0171C56.0844 43.0171 57.1946 43.4819 58.0131 44.3092C58.8316 45.1365 59.2914 46.2586 59.2914 47.4287C59.2914 48.5987 58.8316 49.7208 58.0131 50.5481C57.1946 51.3755 56.0844 51.8403 54.9269 51.8403V51.8573Z" fill="black"/>
<path d="M54.9265 57.2908C52.3669 57.2908 49.8647 56.5236 47.7365 55.0862C45.6082 53.6488 43.9494 51.6058 42.9699 49.2154C41.9903 46.8251 41.7341 44.1949 42.2335 41.6573C42.7328 39.1198 43.9654 36.7889 45.7753 34.9594C47.5853 33.1299 49.8913 31.884 52.4017 31.3793C54.9122 30.8745 57.5144 31.1336 59.8792 32.1237C62.244 33.1138 64.2652 34.7905 65.6872 36.9417C67.1093 39.093 67.8683 41.6221 67.8683 44.2094C67.8683 47.6788 66.5048 51.0061 64.0777 53.4594C61.6507 55.9126 58.3589 57.2908 54.9265 57.2908ZM54.9265 33.4444C52.8221 33.4411 50.7639 34.069 49.0127 35.2487C47.2616 36.4284 45.8961 38.1068 45.0892 40.0714C44.2823 42.0361 44.0703 44.1985 44.4801 46.285C44.8898 48.3715 45.9028 50.2881 47.3909 51.7923C48.879 53.2964 50.7752 54.3204 52.8394 54.7346C54.9036 55.1487 57.043 54.9345 58.9866 54.1189C60.9303 53.3033 62.5908 51.923 63.7579 50.153C64.925 48.3829 65.5462 46.3025 65.5429 44.1753C65.5295 41.3366 64.4056 38.6185 62.4166 36.6144C60.4276 34.6103 57.735 33.483 54.9265 33.4785V33.4444Z" fill="black"/>
<path d="M54.9266 38.9291C54.6183 38.9291 54.3225 38.8053 54.1045 38.5849C53.8864 38.3645 53.7639 38.0655 53.7639 37.7538V36.3741C53.7639 36.0624 53.8864 35.7635 54.1045 35.5431C54.3225 35.3227 54.6183 35.1989 54.9266 35.1989C55.235 35.1989 55.5308 35.3227 55.7488 35.5431C55.9669 35.7635 56.0894 36.0624 56.0894 36.3741V37.7538C56.0894 38.0655 55.9669 38.3645 55.7488 38.5849C55.5308 38.8053 55.235 38.9291 54.9266 38.9291Z" fill="black"/>
<path d="M54.9266 53.237C54.6183 53.237 54.3225 53.1132 54.1045 52.8928C53.8864 52.6724 53.7639 52.3735 53.7639 52.0617V50.6991C53.7639 50.3874 53.8864 50.0884 54.1045 49.868C54.3225 49.6476 54.6183 49.5238 54.9266 49.5238C55.235 49.5238 55.5308 49.6476 55.7488 49.868C55.9669 50.0884 56.0894 50.3874 56.0894 50.6991V52.0617C56.0894 52.3735 55.9669 52.6724 55.7488 52.8928C55.5308 53.1132 55.235 53.237 54.9266 53.237Z" fill="black"/>
<path d="M46.046 61.6511H29.4643C28.2934 61.6511 27.1704 61.181 26.3424 60.3441C25.5144 59.5071 25.0493 58.372 25.0493 57.1885V31.23C25.0537 30.0493 25.5208 28.9186 26.3483 28.0854C27.1758 27.2521 28.2963 26.7843 29.4643 26.7843H66.2844C67.4508 26.7843 68.5695 27.2527 69.3943 28.0864C70.2191 28.9201 70.6825 30.0509 70.6825 31.23V39.1504C70.6825 39.4621 70.56 39.761 70.342 39.9814C70.1239 40.2018 69.8282 40.3257 69.5198 40.3257C69.2114 40.3257 68.9156 40.2018 68.6976 39.9814C68.4795 39.761 68.357 39.4621 68.357 39.1504V31.23C68.357 30.6727 68.1392 30.1381 67.751 29.7425C67.3627 29.3468 66.8356 29.1223 66.2844 29.1178H29.4643C28.9115 29.1223 28.3825 29.3463 27.9916 29.7414C27.6007 30.1365 27.3791 30.6712 27.3747 31.23V57.1885C27.3747 57.7486 27.5949 58.2859 27.9867 58.682C28.3786 59.0781 28.9101 59.3006 29.4643 59.3006H46.046C46.3543 59.3006 46.65 59.4244 46.8681 59.6448C47.0862 59.8652 47.2087 60.1642 47.2087 60.4759C47.2087 60.7876 47.0862 61.0865 46.8681 61.3069C46.65 61.5273 46.3543 61.6511 46.046 61.6511Z" fill="black"/>
<path d="M46.0459 67.6981H28.7565C27.2906 67.6981 25.8847 67.1095 24.8482 66.0618C23.8116 65.014 23.2293 63.593 23.2293 62.1112C23.2337 61.3643 23.5304 60.6495 24.0545 60.1229C24.5786 59.5963 25.2876 59.3008 26.0266 59.3008H46.0459C46.3543 59.3008 46.65 59.4246 46.8681 59.645C47.0861 59.8654 47.2087 60.1644 47.2087 60.4761C47.2087 60.7878 47.0861 61.0867 46.8681 61.3071C46.65 61.5275 46.3543 61.6514 46.0459 61.6514H26.0266C25.9043 61.6513 25.7868 61.6992 25.6988 61.785C25.6108 61.8708 25.5591 61.9877 25.5548 62.1112C25.5548 62.9696 25.8921 63.7927 26.4925 64.3997C27.093 65.0066 27.9074 65.3475 28.7565 65.3475H46.0459C46.3543 65.3475 46.65 65.4714 46.8681 65.6918C47.0861 65.9122 47.2087 66.2111 47.2087 66.5228C47.2087 66.8345 47.0861 67.1335 46.8681 67.3539C46.65 67.5743 46.3543 67.6981 46.0459 67.6981Z" fill="black"/>
<path d="M42.7936 55.979H31.3516C31.0432 55.979 30.7475 55.8552 30.5294 55.6348C30.3113 55.4144 30.1889 55.1155 30.1889 54.8037V33.5123C30.1889 33.2006 30.3113 32.9017 30.5294 32.6813C30.7475 32.4609 31.0432 32.337 31.3516 32.337H43.7878C44.0962 32.337 44.3919 32.4609 44.61 32.6813C44.828 32.9017 44.9506 33.2006 44.9506 33.5123C44.9506 33.824 44.828 34.123 44.61 34.3434C44.3919 34.5638 44.0962 34.6876 43.7878 34.6876H32.4975V53.6285H42.7936C43.102 53.6285 43.3977 53.7523 43.6158 53.9727C43.8338 54.1931 43.9564 54.492 43.9564 54.8037C43.9564 55.1155 43.8338 55.4144 43.6158 55.6348C43.3977 55.8552 43.102 55.979 42.7936 55.979Z" fill="black"/>
<path d="M91.1567 77.7135H54.3366C53.1701 77.7135 52.0514 77.2451 51.2266 76.4114C50.4018 75.5777 49.9384 74.4469 49.9384 73.2679V59.3518C49.9384 59.0401 50.0609 58.7412 50.279 58.5207C50.497 58.3003 50.7928 58.1765 51.1012 58.1765C51.4096 58.1765 51.7053 58.3003 51.9233 58.5207C52.1414 58.7412 52.2639 59.0401 52.2639 59.3518V73.2679C52.2639 73.8251 52.4817 74.3598 52.87 74.7554C53.2582 75.151 53.7853 75.3755 54.3366 75.38H91.1567C91.7095 75.3755 92.2385 75.1516 92.6294 74.7564C93.0203 74.3613 93.2419 73.8267 93.2463 73.2679V47.3094C93.2463 46.7492 93.0262 46.212 92.6343 45.8159C92.2424 45.4198 91.7109 45.1973 91.1567 45.1973H70.5476C70.2392 45.1973 69.9435 45.0734 69.7254 44.853C69.5073 44.6326 69.3849 44.3337 69.3849 44.022C69.3849 43.7103 69.5073 43.4113 69.7254 43.1909C69.9435 42.9705 70.2392 42.8467 70.5476 42.8467H91.1567C92.3218 42.8557 93.4362 43.3298 94.2569 44.1658C95.0776 45.0017 95.5381 46.1317 95.5381 47.3094V73.2679C95.5337 74.4426 95.0712 75.5682 94.251 76.4005C93.4307 77.2328 92.3189 77.7046 91.1567 77.7135Z" fill="black"/>
<path d="M91.8644 83.7602H53.6288C52.1688 83.7557 50.7698 83.1675 49.7373 82.1239C48.7049 81.0803 48.1229 79.6662 48.1184 78.1904C48.1184 77.445 48.4114 76.7302 48.9328 76.2031C49.4543 75.676 50.1615 75.3799 50.8989 75.3799H94.5943C94.9608 75.3777 95.3242 75.4487 95.6635 75.589C96.0028 75.7292 96.3113 75.9359 96.5713 76.1971C96.8312 76.4583 97.0376 76.7688 97.1783 77.1109C97.3191 77.453 97.3916 77.8199 97.3916 78.1904C97.3871 79.6692 96.8028 81.0859 95.7668 82.1299C94.7307 83.174 93.3274 83.7602 91.8644 83.7602ZM50.8989 77.7135C50.7767 77.7179 50.661 77.7701 50.5761 77.859C50.4913 77.948 50.4438 78.0668 50.4439 78.1904C50.4439 79.0458 50.779 79.8664 51.3758 80.4728C51.9726 81.0792 52.7826 81.4222 53.6288 81.4267H91.8644C92.7122 81.4222 93.524 81.0798 94.1235 80.4739C94.723 79.8679 95.0617 79.0473 95.0661 78.1904C95.0661 78.0639 95.0164 77.9426 94.9279 77.8532C94.8395 77.7637 94.7194 77.7135 94.5943 77.7135H50.8989Z" fill="black"/>
<path d="M89.2865 71.9732H56.2243C56.0724 71.9755 55.9216 71.9472 55.7806 71.89C55.6396 71.8328 55.5113 71.7478 55.4031 71.6401C55.2949 71.5323 55.209 71.4038 55.1504 71.2622C55.0918 71.1205 55.0616 70.9685 55.0616 70.815V60.1693C55.0616 59.8575 55.1841 59.5586 55.4021 59.3382C55.6202 59.1178 55.9159 58.994 56.2243 58.994C56.5327 58.994 56.8284 59.1178 57.0465 59.3382C57.2645 59.5586 57.387 59.8575 57.387 60.1693V69.7078H88.1238V50.767H69.5874C69.279 50.767 68.9832 50.6431 68.7652 50.4227C68.5471 50.2023 68.4246 49.9034 68.4246 49.5917C68.4246 49.28 68.5471 48.981 68.7652 48.7606C68.9832 48.5402 69.279 48.4164 69.5874 48.4164H89.3539C89.5058 48.4164 89.6562 48.4469 89.7964 48.5062C89.9365 48.5654 90.0636 48.6523 90.1702 48.7616C90.2768 48.871 90.3609 49.0007 90.4175 49.1432C90.4741 49.2857 90.5021 49.4381 90.4998 49.5917V70.8831C90.4935 71.0361 90.4567 71.1862 90.3918 71.3245C90.3269 71.4628 90.2351 71.5865 90.1218 71.6882C90.0086 71.7899 89.8764 71.8676 89.7329 71.9165C89.5894 71.9655 89.4376 71.9848 89.2865 71.9732Z" fill="black"/>
<path d="M72.7555 83.7603H27.6614C27.4981 83.7802 27.3325 83.765 27.1755 83.7155C27.0184 83.666 26.8736 83.5833 26.7505 83.4731C26.6274 83.3628 26.5288 83.2274 26.4614 83.0757C26.3939 82.9241 26.359 82.7598 26.359 82.5935C26.359 82.4272 26.3939 82.2629 26.4614 82.1112C26.5288 81.9596 26.6274 81.8242 26.7505 81.7139C26.8736 81.6037 27.0184 81.521 27.1755 81.4715C27.3325 81.422 27.4981 81.4067 27.6614 81.4267H72.7555C72.9188 81.4067 73.0844 81.422 73.2415 81.4715C73.3985 81.521 73.5434 81.6037 73.6665 81.7139C73.7896 81.8242 73.8881 81.9596 73.9556 82.1112C74.0231 82.2629 74.058 82.4272 74.058 82.5935C74.058 82.7598 74.0231 82.9241 73.9556 83.0757C73.8881 83.2274 73.7896 83.3628 73.6665 83.4731C73.5434 83.5833 73.3985 83.666 73.2415 83.7155C73.0844 83.765 72.9188 83.7802 72.7555 83.7603Z" fill="black"/>
<path d="M41.1423 39.7124H34.4018C34.0934 39.7124 33.7976 39.5886 33.5796 39.3682C33.3615 39.1477 33.239 38.8488 33.239 38.5371C33.239 38.2254 33.3615 37.9265 33.5796 37.7061C33.7976 37.4856 34.0934 37.3618 34.4018 37.3618H41.1423C41.4507 37.3618 41.7465 37.4856 41.9646 37.7061C42.1826 37.9265 42.3051 38.2254 42.3051 38.5371C42.3051 38.8488 42.1826 39.1477 41.9646 39.3682C41.7465 39.5886 41.4507 39.7124 41.1423 39.7124Z" fill="black"/>
<path d="M38.9181 41.3987C38.7385 41.4021 38.5608 41.3621 38.3996 41.2821C38.2384 41.2021 38.0984 41.0844 37.9913 40.9388C37.8907 40.8135 37.8167 40.6686 37.7739 40.5132C37.7311 40.3577 37.7205 40.195 37.7426 40.0353C37.7648 39.8755 37.8192 39.722 37.9026 39.5844C37.9859 39.4468 38.0964 39.328 38.2272 39.2355L39.2046 38.486L38.2272 37.7366C38.017 37.5394 37.8864 37.2706 37.8603 36.982C37.8343 36.6934 37.9147 36.4052 38.086 36.1728C38.2574 35.9404 38.5077 35.7803 38.7888 35.7231C39.0699 35.6659 39.362 35.7157 39.609 35.8629L41.8502 37.5662C41.9914 37.6773 42.1057 37.8194 42.1845 37.9817C42.2633 38.144 42.3046 38.3223 42.3052 38.5031C42.3059 38.6841 42.2651 38.8628 42.1862 39.0253C42.1073 39.1878 41.9923 39.3297 41.8502 39.4399L39.609 41.1432C39.4121 41.3017 39.1697 41.3914 38.9181 41.3987Z" fill="black"/>
<path d="M81.0461 58.1765H65.8799C65.5715 58.1765 65.2758 58.0527 65.0578 57.8323C64.8397 57.6119 64.7172 57.3129 64.7172 57.0012C64.7172 56.6895 64.8397 56.3906 65.0578 56.1702C65.2758 55.9497 65.5715 55.8259 65.8799 55.8259H81.0461C81.3545 55.8259 81.6502 55.9497 81.8683 56.1702C82.0863 56.3906 82.2088 56.6895 82.2088 57.0012C82.2088 57.3129 82.0863 57.6119 81.8683 57.8323C81.6502 58.0527 81.3545 58.1765 81.0461 58.1765Z" fill="black"/>
<path d="M68.1379 59.8628C67.8885 59.8591 67.6466 59.7757 67.447 59.6243L65.2058 57.921C65.0647 57.8099 64.9504 57.6679 64.8716 57.5056C64.7928 57.3433 64.7515 57.165 64.7509 56.9842C64.7514 56.8009 64.7925 56.6201 64.8713 56.4551C64.95 56.29 65.0643 56.1449 65.2058 56.0303L67.447 54.327C67.6939 54.159 67.995 54.0931 68.2885 54.1427C68.582 54.1924 68.8455 54.3539 69.0247 54.594C69.2039 54.8341 69.2852 55.1345 69.2519 55.4334C69.2186 55.7322 69.0733 56.0069 68.8457 56.2007L67.8515 56.9671L68.8457 57.7166C69.0403 57.8656 69.1835 58.0726 69.2551 58.3084C69.3268 58.5442 69.3232 58.7968 69.2449 59.0305C69.1666 59.2641 69.0176 59.4669 68.8189 59.6102C68.6203 59.7535 68.382 59.8299 68.1379 59.8287V59.8628Z" fill="black"/>
<path d="M84.2647 64.666H61.2458C61.0825 64.686 60.9169 64.6707 60.7599 64.6212C60.6028 64.5717 60.458 64.4891 60.3349 64.3788C60.2118 64.2686 60.1132 64.1331 60.0457 63.9815C59.9782 63.8299 59.9433 63.6655 59.9433 63.4993C59.9433 63.333 59.9782 63.1686 60.0457 63.017C60.1132 62.8654 60.2118 62.73 60.3349 62.6197C60.458 62.5094 60.6028 62.4268 60.7599 62.3773C60.9169 62.3278 61.0825 62.3125 61.2458 62.3325H84.2647C84.428 62.3125 84.5937 62.3278 84.7507 62.3773C84.9077 62.4268 85.0525 62.5094 85.1756 62.6197C85.2987 62.73 85.3973 62.8654 85.4648 63.017C85.5323 63.1686 85.5672 63.333 85.5672 63.4993C85.5672 63.6655 85.5323 63.8299 85.4648 63.9815C85.3973 64.1331 85.2987 64.2686 85.1756 64.3788C85.0525 64.4891 84.9077 64.5717 84.7507 64.6212C84.5937 64.6707 84.428 64.686 84.2647 64.666Z" fill="black"/>
</g>
</svg>
