<svg width="101" height="103" viewBox="0 0 101 103" fill="none" xmlns="http://www.w3.org/2000/svg">
<mask id="mask0_12_40" style="mask-type:alpha" maskUnits="userSpaceOnUse" x="0" y="0" width="101" height="103">
<rect x="0.5" y="0.5" width="99.75" height="101.06" fill="#C4C4C4" stroke="black"/>
</mask>
<g mask="url(#mask0_12_40)">
<circle cx="45.5844" cy="46.5249" r="42.5249" fill="#A9D2FF"/>
<path d="M42.7308 64.8071C42.56 64.8097 42.3903 64.7782 42.2318 64.7146C42.0732 64.651 41.9289 64.5565 41.8073 64.4366C41.6856 64.3168 41.5889 64.1739 41.523 64.0164C41.4571 63.8588 41.4231 63.6898 41.4231 63.519V59.5409C41.4231 56.2501 40.1153 53.0941 37.7873 50.7672C35.4594 48.4403 32.302 47.133 29.0098 47.133C25.7175 47.133 22.5601 48.4403 20.2322 50.7672C17.9042 53.0941 16.5964 56.2501 16.5964 59.5409V63.4811C16.558 63.7983 16.4047 64.0904 16.1655 64.3023C15.9263 64.5142 15.6178 64.6312 15.2982 64.6312C14.9786 64.6312 14.6701 64.5142 14.4309 64.3023C14.1917 64.0904 14.0384 63.7983 14 63.4811V59.503C14.1382 55.6137 15.7811 51.9298 18.5827 49.2273C21.3842 46.5247 25.1258 45.0143 29.0192 45.0143C32.9127 45.0143 36.6542 46.5247 39.4558 49.2273C42.2573 51.9298 43.9002 55.6137 44.0385 59.503V63.519C44.0385 63.6898 44.0045 63.8588 43.9386 64.0164C43.8726 64.1739 43.776 64.3168 43.6543 64.4366C43.5326 64.5565 43.3883 64.651 43.2298 64.7146C43.0712 64.7782 42.9016 64.8097 42.7308 64.8071V64.8071Z" fill="black"/>
<path d="M29.0852 43.1547C27.5859 43.1547 26.1202 42.7103 24.8736 41.8777C23.627 41.0451 22.6553 39.8616 22.0816 38.4771C21.5078 37.0925 21.3577 35.5689 21.6502 34.0991C21.9427 32.6292 22.6647 31.2791 23.7248 30.2193C24.785 29.1596 26.1358 28.438 27.6063 28.1456C29.0768 27.8532 30.601 28.0033 31.9862 28.5768C33.3714 29.1503 34.5553 30.1215 35.3883 31.3676C36.2213 32.6137 36.6659 34.0787 36.6659 35.5773C36.6659 37.587 35.8672 39.5143 34.4455 40.9353C33.0239 42.3564 31.0957 43.1547 29.0852 43.1547ZM29.0852 30.7278C28.1144 30.7278 27.1654 31.0156 26.3582 31.5547C25.551 32.0938 24.9219 32.8601 24.5503 33.7566C24.1788 34.6531 24.0816 35.6396 24.271 36.5913C24.4604 37.5431 24.9279 38.4173 25.6144 39.1035C26.3008 39.7896 27.1754 40.2569 28.1276 40.4462C29.0798 40.6355 30.0667 40.5384 30.9636 40.167C31.8605 39.7957 32.6271 39.1668 33.1665 38.36C33.7058 37.5531 33.9937 36.6045 33.9937 35.6342C33.9987 34.9867 33.8754 34.3446 33.631 33.7449C33.3866 33.1453 33.0258 32.6 32.5695 32.1404C32.1132 31.6807 31.5704 31.316 30.9724 31.067C30.3744 30.8181 29.733 30.6899 29.0852 30.69V30.7278Z" fill="black"/>
<path d="M90.7921 94.9651H54.348C52.9522 94.9601 51.615 94.4036 50.6281 93.4171C49.6411 92.4305 49.0844 91.094 49.0794 89.6988V67.4782C49.0794 66.0815 49.6345 64.742 50.6225 63.7544C51.6106 62.7667 52.9507 62.2119 54.348 62.2119H90.7921C92.1894 62.2119 93.5295 62.7667 94.5175 63.7544C95.5056 64.742 96.0607 66.0815 96.0607 67.4782V89.6988C96.0557 91.094 95.499 92.4305 94.512 93.4171C93.525 94.4036 92.1879 94.9601 90.7921 94.9651V94.9651ZM54.348 64.8072C53.6426 64.8122 52.9677 65.0958 52.4707 65.5962C51.9737 66.0965 51.6947 66.7731 51.6947 67.4782V89.6988C51.6947 90.4022 51.9743 91.0767 52.4719 91.5741C52.9694 92.0714 53.6443 92.3509 54.348 92.3509H90.7921C91.4958 92.3509 92.1706 92.0714 92.6682 91.5741C93.1658 91.0767 93.4453 90.4022 93.4453 89.6988V67.4782C93.4453 66.7731 93.1664 66.0965 92.6694 65.5962C92.1723 65.0958 91.4975 64.8122 90.7921 64.8072H54.348Z" fill="black"/>
<path d="M87.2293 70.7363H50.3115C49.9646 70.7363 49.632 70.5986 49.3868 70.3535C49.1416 70.1083 49.0038 69.7759 49.0038 69.4292C49.0038 69.0825 49.1416 68.7501 49.3868 68.505C49.632 68.2598 49.9646 68.1221 50.3115 68.1221H87.1535C87.5004 68.1221 87.833 68.2598 88.0782 68.505C88.3234 68.7501 88.4612 69.0825 88.4612 69.4292C88.4612 69.7759 88.3234 70.1083 88.0782 70.3535C87.833 70.5986 87.5004 70.7363 87.1535 70.7363H87.2293Z" fill="black"/>
<path d="M94.7524 77.253H55.7499C55.4031 77.253 55.0704 77.1153 54.8252 76.8701C54.58 76.625 54.4422 76.2925 54.4422 75.9459C54.4422 75.5992 54.58 75.2667 54.8252 75.0216C55.0704 74.7765 55.4031 74.6388 55.7499 74.6388H94.7524C95.0993 74.6388 95.4319 74.7765 95.6771 75.0216C95.9223 75.2667 96.0601 75.5992 96.0601 75.9459C96.0601 76.2925 95.9223 76.625 95.6771 76.8701C95.4319 77.1153 95.0993 77.253 94.7524 77.253Z" fill="black"/>
<path d="M72.5794 82.3867H65.264C64.9172 82.3867 64.5846 82.249 64.3394 82.0038C64.0941 81.7587 63.9564 81.4262 63.9564 81.0796C63.9564 80.7329 64.0941 80.4005 64.3394 80.1553C64.5846 79.9102 64.9172 79.7725 65.264 79.7725H72.5794C72.9262 79.7725 73.2588 79.9102 73.5041 80.1553C73.7493 80.4005 73.8871 80.7329 73.8871 81.0796C73.8871 81.4262 73.7493 81.7587 73.5041 82.0038C73.2588 82.249 72.9262 82.3867 72.5794 82.3867V82.3867Z" fill="black"/>
<path d="M72.5796 86.2509H65.2642C65.0805 86.2732 64.8943 86.2562 64.7177 86.2011C64.5411 86.146 64.3782 86.0542 64.2397 85.9315C64.1013 85.8089 63.9904 85.6583 63.9145 85.4896C63.8386 85.321 63.7994 85.1382 63.7994 84.9533C63.7994 84.7684 63.8386 84.5856 63.9145 84.417C63.9904 84.2483 64.1013 84.0978 64.2397 83.9751C64.3782 83.8525 64.5411 83.7606 64.7177 83.7055C64.8943 83.6505 65.0805 83.6335 65.2642 83.6557H72.5796C72.7632 83.6335 72.9495 83.6505 73.1261 83.7055C73.3027 83.7606 73.4656 83.8525 73.604 83.9751C73.7425 84.0978 73.8533 84.2483 73.9292 84.417C74.0051 84.5856 74.0444 84.7684 74.0444 84.9533C74.0444 85.1382 74.0051 85.321 73.9292 85.4896C73.8533 85.6583 73.7425 85.8089 73.604 85.9315C73.4656 86.0542 73.3027 86.146 73.1261 86.2011C72.9495 86.2562 72.7632 86.2732 72.5796 86.2509V86.2509Z" fill="black"/>
<path d="M72.5794 90.1342H65.264C64.9172 90.1342 64.5846 89.9965 64.3394 89.7513C64.0941 89.5062 63.9564 89.1737 63.9564 88.8271C63.9564 88.4804 64.0941 88.148 64.3394 87.9028C64.5846 87.6577 64.9172 87.52 65.264 87.52H72.5794C72.9262 87.52 73.2588 87.6577 73.5041 87.9028C73.7493 88.148 73.8871 88.4804 73.8871 88.8271C73.8871 89.1737 73.7493 89.5062 73.5041 89.7513C73.2588 89.9965 72.9262 90.1342 72.5794 90.1342V90.1342Z" fill="black"/>
<path d="M82.7378 82.3867H78.0567C77.7099 82.3867 77.3773 82.249 77.132 82.0038C76.8868 81.7587 76.749 81.4262 76.749 81.0796C76.749 80.7329 76.8868 80.4005 77.132 80.1553C77.3773 79.9102 77.7099 79.7725 78.0567 79.7725H82.7378C83.0846 79.7725 83.4172 79.9102 83.6624 80.1553C83.9076 80.4005 84.0454 80.7329 84.0454 81.0796C84.0454 81.4262 83.9076 81.7587 83.6624 82.0038C83.4172 82.249 83.0846 82.3867 82.7378 82.3867Z" fill="black"/>
<path d="M82.7376 86.2509H78.0565C77.7392 86.2126 77.447 86.0593 77.235 85.8203C77.023 85.5812 76.9059 85.2728 76.9059 84.9533C76.9059 84.6339 77.023 84.3255 77.235 84.0864C77.447 83.8473 77.7392 83.6941 78.0565 83.6557H82.7376C82.9212 83.6335 83.1075 83.6505 83.2841 83.7055C83.4607 83.7606 83.6236 83.8525 83.762 83.9751C83.9005 84.0978 84.0113 84.2483 84.0872 84.417C84.1631 84.5856 84.2024 84.7684 84.2024 84.9533C84.2024 85.1382 84.1631 85.321 84.0872 85.4896C84.0113 85.6583 83.9005 85.8089 83.762 85.9315C83.6236 86.0542 83.4607 86.146 83.2841 86.2011C83.1075 86.2562 82.9212 86.2732 82.7376 86.2509V86.2509Z" fill="black"/>
<path d="M82.7378 90.1342H78.0567C77.7099 90.1342 77.3773 89.9965 77.132 89.7513C76.8868 89.5062 76.749 89.1737 76.749 88.8271C76.749 88.4804 76.8868 88.148 77.132 87.9028C77.3773 87.6577 77.7099 87.52 78.0567 87.52H82.7378C83.0846 87.52 83.4172 87.6577 83.6624 87.9028C83.9076 88.148 84.0454 88.4804 84.0454 88.8271C84.0454 89.1737 83.9076 89.5062 83.6624 89.7513C83.4172 89.9965 83.0846 90.1342 82.7378 90.1342Z" fill="black"/>
<path d="M22.7557 64.8071C22.5849 64.8096 22.4153 64.7782 22.2567 64.7146C22.0982 64.651 21.9539 64.5565 21.8322 64.4366C21.7105 64.3168 21.6139 64.1739 21.5479 64.0163C21.482 63.8588 21.448 63.6898 21.4481 63.519V57.9497C21.4481 57.603 21.5858 57.2705 21.8311 57.0254C22.0763 56.7803 22.4089 56.6426 22.7557 56.6426C23.1025 56.6426 23.4352 56.7803 23.6804 57.0254C23.9256 57.2705 24.0634 57.603 24.0634 57.9497V63.519C24.0634 63.6898 24.0295 63.8588 23.9635 64.0163C23.8976 64.1739 23.8009 64.3168 23.6793 64.4366C23.5576 64.5565 23.4133 64.651 23.2547 64.7146C23.0962 64.7782 22.9266 64.8096 22.7557 64.8071Z" fill="black"/>
<path d="M35.4154 64.8071C35.2446 64.8096 35.075 64.7782 34.9164 64.7146C34.7579 64.651 34.6135 64.5565 34.4919 64.4366C34.3702 64.3168 34.2736 64.1739 34.2076 64.0163C34.1417 63.8588 34.1077 63.6898 34.1077 63.519V57.9497C34.1077 57.603 34.2455 57.2705 34.4907 57.0254C34.736 56.7803 35.0686 56.6426 35.4154 56.6426C35.7622 56.6426 36.0948 56.7803 36.3401 57.0254C36.5853 57.2705 36.7231 57.603 36.7231 57.9497V63.519C36.7231 63.6898 36.6891 63.8588 36.6232 64.0163C36.5573 64.1739 36.4606 64.3168 36.3389 64.4366C36.2173 64.5565 36.073 64.651 35.9144 64.7146C35.7559 64.7782 35.5862 64.8096 35.4154 64.8071Z" fill="black"/>
<path d="M40.969 82.7273H19.1556C18.8088 82.7273 18.4762 82.5896 18.231 82.3444C17.9857 82.0993 17.848 81.7669 17.848 81.4202V71.3424C17.848 70.9957 17.9857 70.6632 18.231 70.4181C18.4762 70.173 18.8088 70.0353 19.1556 70.0353C19.5024 70.0353 19.8351 70.173 20.0803 70.4181C20.3255 70.6632 20.4633 70.9957 20.4633 71.3424V80.1131H40.969C41.3158 80.1131 41.6485 80.2508 41.8937 80.496C42.1389 80.7411 42.2767 81.0736 42.2767 81.4202C42.2767 81.7669 42.1389 82.0993 41.8937 82.3444C41.6485 82.5896 41.3158 82.7273 40.969 82.7273V82.7273Z" fill="black"/>
<path d="M37.462 85.948C37.2613 85.9446 37.0639 85.897 36.8837 85.8086C36.7035 85.7202 36.5451 85.5932 36.4197 85.4365C36.3082 85.2973 36.2259 85.137 36.1779 84.9653C36.1298 84.7935 36.1169 84.6138 36.1399 84.437C36.1629 84.2601 36.2213 84.0897 36.3117 83.936C36.4021 83.7823 36.5226 83.6483 36.666 83.5422L39.5277 81.3637L36.666 79.1852C36.5292 79.0807 36.4142 78.9503 36.3277 78.8014C36.2413 78.6525 36.185 78.4881 36.1621 78.3174C36.1392 78.1468 36.1502 77.9734 36.1944 77.807C36.2386 77.6406 36.3151 77.4845 36.4197 77.3477C36.5242 77.2108 36.6547 77.096 36.8036 77.0095C36.9526 76.9231 37.1171 76.8669 37.2878 76.844C37.4585 76.8211 37.632 76.8321 37.7985 76.8763C37.965 76.9204 38.1211 76.997 38.258 77.1014L42.4842 80.3218C42.644 80.4443 42.7733 80.6021 42.8621 80.7828C42.9509 80.9636 42.9967 81.1624 42.9959 81.3637C42.9952 81.5648 42.9488 81.7631 42.8602 81.9436C42.7715 82.1241 42.643 82.2821 42.4842 82.4056L38.258 85.626C38.0322 85.8128 37.7542 85.9252 37.462 85.948V85.948Z" fill="black"/>
<path d="M69.8119 59.105C69.4651 59.105 69.1324 58.9673 68.8872 58.7221C68.642 58.477 68.5042 58.1446 68.5042 57.7979V49.0272H47.9985C47.6517 49.0272 47.319 48.8894 47.0738 48.6443C46.8286 48.3992 46.6908 48.0667 46.6908 47.7201C46.6908 47.3734 46.8286 47.0409 47.0738 46.7958C47.319 46.5507 47.6517 46.413 47.9985 46.413H69.8119C69.9827 46.4129 70.1519 46.4469 70.3095 46.5128C70.4671 46.5787 70.61 46.6753 70.7299 46.7969C70.8498 46.9185 70.9443 47.0628 71.008 47.2213C71.0716 47.3797 71.1031 47.5493 71.1006 47.7201V57.7979C71.1031 57.9687 71.0716 58.1382 71.008 58.2966C70.9443 58.4551 70.8498 58.5994 70.7299 58.721C70.61 58.8427 70.4671 58.9393 70.3095 59.0052C70.1519 59.0711 69.9827 59.105 69.8119 59.105Z" fill="black"/>
<path d="M51.5054 52.248C51.2175 52.2538 50.9363 52.1602 50.7095 51.9828L46.5212 48.8382C46.3614 48.7157 46.232 48.5579 46.1433 48.3771C46.0545 48.1964 46.0087 47.9976 46.0095 47.7963C46.0101 47.5952 46.0566 47.3969 46.1452 47.2164C46.2339 47.0359 46.3624 46.8779 46.5212 46.7544L50.7474 43.5341C51.0238 43.3231 51.3728 43.2305 51.7176 43.2766C52.0623 43.3228 52.3746 43.504 52.5857 43.7803C52.7968 44.0567 52.8894 44.4055 52.8432 44.7501C52.797 45.0947 52.6158 45.4068 52.3393 45.6178L49.4587 47.7963L52.3393 49.9748C52.4827 50.0809 52.6032 50.2149 52.6936 50.3686C52.7841 50.5224 52.8425 50.6928 52.8655 50.8696C52.8885 51.0465 52.8756 51.2261 52.8275 51.3979C52.7794 51.5696 52.6972 51.7299 52.5857 51.8691C52.4462 52.01 52.2764 52.1174 52.0893 52.183C51.9021 52.2486 51.7025 52.2708 51.5054 52.248Z" fill="black"/>
</g>
</svg>
