<svg width="101" height="103" viewBox="0 0 101 103" fill="none" xmlns="http://www.w3.org/2000/svg">
<mask id="mask0_45_377" style="mask-type:alpha" maskUnits="userSpaceOnUse" x="0" y="0" width="101" height="103">
<rect width="100.75" height="102.06" fill="#C4C4C4"/>
</mask>
<g mask="url(#mask0_45_377)">
<circle cx="49.5844" cy="47.5249" r="42.5249" fill="#A9D2FF"/>
<path d="M34.4084 90.0314C33.2718 90.0314 32.1818 89.5799 31.3781 88.7762C30.5744 87.9725 30.1229 86.8825 30.1229 85.7459V67.4955C30.1871 66.4005 30.6674 65.3714 31.4654 64.6189C32.2634 63.8663 33.3189 63.4471 34.4158 63.4471C35.5127 63.4471 36.5681 63.8663 37.3661 64.6189C38.1641 65.3714 38.6444 66.4005 38.7087 67.4955V85.7459C38.7048 86.8838 38.25 87.9738 37.444 88.7771C36.6379 89.5804 35.5463 90.0314 34.4084 90.0314ZM34.4084 65.2493C33.8126 65.2493 33.2413 65.4859 32.8201 65.9072C32.3988 66.3284 32.1622 66.8997 32.1622 67.4955V85.7459C32.2081 86.3121 32.4654 86.8402 32.8829 87.2253C33.3005 87.6104 33.8477 87.8242 34.4158 87.8242C34.9838 87.8242 35.531 87.6104 35.9486 87.2253C36.3662 86.8402 36.6235 86.3121 36.6694 85.7459V67.4955C36.6655 66.8984 36.4256 66.3271 36.002 65.9063C35.5784 65.4854 35.0055 65.2492 34.4084 65.2493Z" fill="black"/>
<path d="M72.6975 66.5794C73.4414 66.6344 74.1886 66.5354 74.8925 66.2885C75.5964 66.0417 76.2418 65.6523 76.7883 65.1446C77.3349 64.637 77.7709 64.0221 78.069 63.3384C78.3671 62.6546 78.521 61.9167 78.521 61.1708C78.521 60.4249 78.3671 59.687 78.069 59.0032C77.7709 58.3194 77.3349 57.7045 76.7883 57.1969C76.2418 56.6893 75.5964 56.2999 74.8925 56.053C74.1886 55.8061 73.4414 55.7071 72.6975 55.7621C72.0403 55.7048 71.4139 55.4574 70.8949 55.0501C70.3759 54.6429 69.9866 54.0934 69.7745 53.4687C69.5625 52.844 69.5368 52.1711 69.7006 51.532C69.8645 50.893 70.2108 50.3155 70.6972 49.8698C71.1837 49.4242 71.7893 49.1298 72.4403 49.0225C73.0912 48.9153 73.7593 48.9997 74.3631 49.2656C74.9668 49.5316 75.4801 49.9675 75.8404 50.5201C76.2006 51.0728 76.3923 51.7183 76.3919 52.3781C76.3746 52.5213 76.3878 52.6665 76.4308 52.8042C76.4737 52.9419 76.5454 53.0689 76.6411 53.1769C76.7367 53.2848 76.8542 53.3713 76.9858 53.4305C77.1173 53.4896 77.2599 53.5203 77.4042 53.5203C77.5484 53.5203 77.691 53.4896 77.8226 53.4305C77.9541 53.3713 78.0716 53.2848 78.1673 53.1769C78.2629 53.0689 78.3346 52.9419 78.3776 52.8042C78.4205 52.6665 78.4338 52.5213 78.4164 52.3781C78.4815 51.2318 78.201 50.0924 77.6112 49.1073C77.0214 48.1223 76.1494 47.337 75.1082 46.8532C74.067 46.3694 72.9046 46.2093 71.7713 46.3936C70.6381 46.5779 69.5863 47.0983 68.7522 47.8871C67.918 48.676 67.3399 49.6972 67.0927 50.8184C66.8455 51.9396 66.9405 53.1091 67.3656 54.1757C67.7907 55.2422 68.5261 56.1566 69.4767 56.8004C70.4273 57.4442 71.5494 57.7878 72.6975 57.7867C73.3502 57.8468 73.9714 58.0952 74.4856 58.5017C74.9998 58.9081 75.385 59.4552 75.5942 60.0764C75.8034 60.6975 75.8277 61.3661 75.6642 62.0009C75.5006 62.6356 75.1563 63.2092 74.6729 63.6519C74.1896 64.0947 73.5881 64.3875 72.9415 64.4949C72.2948 64.6023 71.6309 64.5195 71.0304 64.2568C70.4299 63.994 69.9187 63.5625 69.5588 63.0146C69.1989 62.4668 69.0058 61.8262 69.0031 61.1708C69.0031 60.9004 68.8956 60.641 68.7044 60.4498C68.5132 60.2585 68.2538 60.1511 67.9834 60.1511C67.713 60.1511 67.4536 60.2585 67.2624 60.4498C67.0711 60.641 66.9637 60.9004 66.9637 61.1708C67.0101 62.6472 67.6394 64.0452 68.7139 65.0589C69.7885 66.0725 71.2208 66.6192 72.6975 66.5794Z" fill="black"/>
<path d="M72.6966 68.3674C72.967 68.3674 73.2264 68.26 73.4176 68.0688C73.6089 67.8776 73.7163 67.6182 73.7163 67.3478V46.2009C73.7163 45.9305 73.6089 45.6712 73.4176 45.4799C73.2264 45.2887 72.967 45.1813 72.6966 45.1813C72.4262 45.1813 72.1668 45.2887 71.9756 45.4799C71.7844 45.6712 71.6769 45.9305 71.6769 46.2009V67.3478C71.6769 67.6182 71.7844 67.8776 71.9756 68.0688C72.1668 68.26 72.4262 68.3674 72.6966 68.3674Z" fill="black"/>
<path d="M60.7576 62.3379C60.5491 62.3368 60.3458 62.2727 60.1744 62.154C60.003 62.0353 59.8714 61.8676 59.797 61.6729C58.6961 58.7455 58.6198 55.5313 59.5807 52.5549C60.5415 49.5786 62.4826 47.0157 65.0874 45.2845C65.3127 45.1505 65.5808 45.1085 65.8362 45.167C66.0917 45.2255 66.3147 45.3801 66.4592 45.5987C66.6037 45.8173 66.6584 46.0832 66.6121 46.3411C66.5658 46.599 66.422 46.8292 66.2105 46.9839C63.9816 48.4507 62.3201 50.6343 61.5005 53.1735C60.681 55.7128 60.7525 58.4557 61.7033 60.9488C61.7529 61.0738 61.7769 61.2074 61.7739 61.3419C61.7709 61.4763 61.741 61.6088 61.6859 61.7314C61.6308 61.854 61.5516 61.9644 61.453 62.0559C61.3545 62.1473 61.2386 62.2181 61.1122 62.264C60.9994 62.3096 60.8793 62.3346 60.7576 62.3379Z" fill="black"/>
<path d="M79.6713 68.4263C79.4545 68.4235 79.2443 68.3518 79.071 68.2214C78.8978 68.091 78.7706 67.9087 78.708 67.7011C78.6454 67.4936 78.6506 67.2714 78.7229 67.067C78.7951 66.8626 78.9306 66.6865 79.1098 66.5643C80.7317 65.4974 82.0631 64.0442 82.9844 62.3353C83.9057 60.6265 84.388 58.7155 84.388 56.7741C84.388 54.8327 83.9057 52.9218 82.9844 51.2129C82.0631 49.5041 80.7317 48.0509 79.1098 46.9839C78.8983 46.8292 78.7544 46.599 78.7081 46.3411C78.6618 46.0832 78.7166 45.8173 78.8611 45.5987C79.0055 45.3801 79.2287 45.2255 79.4841 45.167C79.7395 45.1085 80.0077 45.1505 80.2329 45.2845C82.1352 46.5375 83.6967 48.2432 84.7771 50.2486C85.8575 52.2539 86.4231 54.4962 86.4231 56.7741C86.4231 59.052 85.8575 61.2943 84.7771 63.2997C83.6967 65.305 82.1352 67.0108 80.2329 68.2637C80.0642 68.3686 79.8699 68.4248 79.6713 68.4263Z" fill="black"/>
<path d="M67.3026 85.7755H37.7473C37.6141 85.7775 37.4818 85.7529 37.3582 85.7033C37.2346 85.6537 37.1221 85.58 37.0272 85.4865C36.9323 85.393 36.8569 85.2815 36.8055 85.1586C36.7541 85.0357 36.7276 84.9038 36.7276 84.7706V69.2836C36.7299 69.0945 36.7833 68.9095 36.8822 68.7482C36.981 68.5869 37.1217 68.4553 37.2892 68.3674L41.1314 66.4611C46.0377 64.012 51.5874 63.1594 57.0026 64.0228L67.4652 65.6927C68.5319 65.8789 69.4937 66.4492 70.1688 67.2959C70.844 68.1425 71.1859 69.2071 71.1301 70.2885V70.6727C71.154 70.9382 71.154 71.2053 71.1301 71.4707C71.1371 71.5494 71.1371 71.6285 71.1301 71.7072L71.3222 72.4756C71.8098 72.4756 72.2827 72.4756 72.7999 72.4756C75.6629 72.4772 78.4722 71.6979 80.9251 70.2214C83.378 68.745 85.3817 66.6274 86.7205 64.0967C86.7912 63.9648 86.8901 63.8501 87.0101 63.7607C87.1302 63.6713 87.2684 63.6094 87.415 63.5795C87.3321 63.433 87.2886 63.2675 87.2886 63.0992C87.2886 62.9309 87.3321 62.7654 87.415 62.6189C87.4771 62.5005 87.5622 62.3957 87.6652 62.3106C87.7683 62.2256 87.8873 62.1619 88.0153 62.1233C88.1433 62.0848 88.2777 62.0722 88.4106 62.0863C88.5435 62.1003 88.6723 62.1407 88.7894 62.2051L89.1736 62.412C90.1785 62.8849 92.0404 63.7863 92.0257 65.8552C91.8808 67.7223 91.1222 69.4889 89.8681 70.8796C89.2163 71.621 88.51 72.3125 87.7549 72.9485L87.1343 73.5248C86.494 74.1175 85.8179 74.6703 85.1097 75.1799L72.8147 84.0465C71.2118 85.2022 69.2784 85.8087 67.3026 85.7755ZM38.7078 83.751H67.3026C68.8145 83.7514 70.2881 83.2757 71.5143 82.3914L83.8093 73.5248C84.4475 73.0734 85.0548 72.5797 85.6269 72.0471L86.292 71.456C86.9654 70.8857 87.5975 70.2685 88.1835 69.6087C89.1445 68.5825 89.7416 67.2688 89.8829 65.87C89.8829 65.2345 89.277 64.8208 88.4938 64.3922C88.5263 64.6192 88.4902 64.8508 88.3904 65.0572C86.8914 67.9242 84.6367 70.3265 81.8704 72.0039C79.1041 73.6814 75.9317 74.5702 72.6965 74.574C71.9005 74.5773 71.1054 74.523 70.3173 74.4115C70.1168 74.3868 69.9286 74.3014 69.778 74.1667C69.6274 74.0319 69.5217 73.8544 69.475 73.6578L69.1203 72.2687C68.9725 71.8925 68.9416 71.4805 69.0316 71.0865C69.0427 70.9389 69.0427 70.7907 69.0316 70.6432V70.3181C69.0316 68.0719 67.5538 67.7911 67.0514 67.6876L56.6184 66.1064C51.6284 65.3017 46.5117 66.0821 41.9885 68.3379L38.7078 69.9191V83.751Z" fill="black"/>
<path d="M72.6973 74.5743H71.5446H71.456C71.0422 74.5743 70.6875 74.5743 70.3181 74.4561C70.1089 74.4315 69.913 74.3409 69.7589 74.1974C69.6047 74.0539 69.5004 73.8649 69.461 73.6581L69.195 72.3428C69.0897 71.8027 69.0451 71.2525 69.062 70.7025V70.3626C69.062 68.1164 67.5842 67.8357 67.0818 67.7322L58.0526 66.2544C57.9024 66.2292 57.7595 66.1711 57.6344 66.0842C57.5092 65.9973 57.4048 65.8839 57.3285 65.752C55.833 63.1456 55.0244 60.2018 54.9786 57.1971C54.9328 54.1925 55.6512 51.2255 57.0666 48.5746C58.4819 45.9238 60.5477 43.6761 63.0699 42.0426C65.5922 40.409 68.4881 39.4433 71.486 39.2359C74.4838 39.0285 77.4852 39.5863 80.2083 40.857C82.9315 42.1277 85.287 44.0696 87.0539 46.5003C88.8207 48.931 89.9409 51.7709 90.3092 54.7532C90.6775 57.7356 90.282 60.7626 89.1596 63.5501L88.4355 65.0279C88.2286 65.4121 88.0365 65.7668 87.8296 66.0919L87.209 67.0229L87.1203 67.1411C86.6697 67.752 86.1758 68.3298 85.6425 68.8701C85.3765 69.1509 85.1253 69.3873 84.8889 69.6238L84.1056 68.9588L84.8002 69.6976C84.5286 69.9644 84.2424 70.2161 83.9431 70.4513C83.6327 70.7025 83.3668 70.9094 83.086 71.1015L82.9087 71.2345C82.6131 71.4266 82.3175 71.6335 82.022 71.8109L81.0319 72.3872H80.9137C80.6477 72.535 80.3669 72.6532 80.1009 72.7862L79.8792 72.8896C79.5393 73.0226 79.1995 73.1704 78.8596 73.2886C78.5345 73.4068 78.2241 73.5103 77.899 73.599L77.5591 73.7024L76.835 73.8797H76.5247L75.4459 74.0718H75.1799C74.8844 74.0718 74.6036 74.1457 74.308 74.1605H73.9829L72.6973 74.5743ZM71.3082 72.4758H71.5594V73.5103V72.4906C72.2335 72.535 72.9098 72.535 73.5839 72.4906H73.7908L74.6332 72.402H74.8696L75.8301 72.2394H76.0814L76.7463 72.0769L77.0419 71.9882L77.8843 71.7074C78.2685 71.5744 78.564 71.4562 78.8596 71.3232H78.9926L79.7758 70.9537L79.9531 70.8651L80.7955 70.3774C81.091 70.2001 81.357 70.0228 81.6082 69.8454L81.756 69.742L82.4949 69.1804C82.7904 68.944 83.0417 68.7223 83.2929 68.4859L84.0465 69.1656L83.352 68.4268C83.5736 68.2199 83.7953 67.9982 84.0022 67.7765L84.8297 68.3824L84.0909 67.6879C84.5449 67.2223 84.9694 66.7288 85.3618 66.2101V66.1215C85.5527 65.8597 85.7302 65.5884 85.8937 65.3087C86.1006 64.9836 86.2779 64.688 86.4405 64.3777L87.1055 62.8999C88.1222 60.4345 88.4975 57.7516 88.1964 55.1018C87.8954 52.4519 86.9278 49.9216 85.384 47.7471C83.8402 45.5725 81.7705 43.8246 79.3682 42.6665C76.966 41.5084 74.3094 40.978 71.6465 41.1247C68.9837 41.2714 66.4015 42.0905 64.141 43.5054C61.8805 44.9204 60.0154 46.8851 58.7198 49.2161C57.4242 51.5471 56.7404 54.1684 56.7323 56.8352C56.7241 59.5021 57.3919 62.1275 58.6733 64.4664L67.2591 65.8259C68.3259 66.0122 69.2876 66.5824 69.9627 67.4291C70.6379 68.2758 70.9798 69.3403 70.9239 70.4217V70.939C70.9099 71.3057 70.9396 71.6728 71.0126 72.0325L71.3082 72.4758Z" fill="black"/>
<path d="M70.422 74.4262H59.3979C59.1275 74.4262 58.8681 74.3187 58.6769 74.1275C58.4856 73.9363 58.3782 73.6769 58.3782 73.4065C58.3782 73.1361 58.4856 72.8767 58.6769 72.6855C58.8681 72.4943 59.1275 72.3868 59.3979 72.3868H70.4516C70.722 72.3868 70.9814 72.4943 71.1726 72.6855C71.3638 72.8767 71.4713 73.1361 71.4713 73.4065C71.4713 73.6769 71.3638 73.9363 71.1726 74.1275C70.9814 74.3187 70.722 74.4262 70.4516 74.4262H70.422Z" fill="black"/>
<path d="M33.5657 85.8936H31.1422C30.999 85.911 30.8537 85.8977 30.716 85.8548C30.5783 85.8118 30.4513 85.7401 30.3434 85.6445C30.2354 85.5488 30.149 85.4313 30.0898 85.2998C30.0306 85.1682 30 85.0256 30 84.8814C30 84.7371 30.0306 84.5945 30.0898 84.463C30.149 84.3314 30.2354 84.2139 30.3434 84.1183C30.4513 84.0226 30.5783 83.9509 30.716 83.908C30.8537 83.865 30.999 83.8517 31.1422 83.8691H33.5657C33.7089 83.8517 33.8542 83.865 33.9919 83.908C34.1296 83.9509 34.2566 84.0226 34.3646 84.1183C34.4725 84.2139 34.5589 84.3314 34.6181 84.463C34.6773 84.5945 34.7079 84.7371 34.7079 84.8814C34.7079 85.0256 34.6773 85.1682 34.6181 85.2998C34.5589 85.4313 34.4725 85.5488 34.3646 85.6445C34.2566 85.7401 34.1296 85.8118 33.9919 85.8548C33.8542 85.8977 33.7089 85.911 33.5657 85.8936Z" fill="black"/>
<path d="M33.566 80.3964H31.1425C30.8721 80.3964 30.6127 80.2889 30.4215 80.0977C30.2303 79.9065 30.1229 79.6471 30.1229 79.3767C30.1229 79.1063 30.2303 78.8469 30.4215 78.6557C30.6127 78.4645 30.8721 78.3571 31.1425 78.3571H33.566C33.8365 78.3571 34.0958 78.4645 34.2871 78.6557C34.4783 78.8469 34.5857 79.1063 34.5857 79.3767C34.5857 79.6471 34.4783 79.9065 34.2871 80.0977C34.0958 80.2889 33.8365 80.3964 33.566 80.3964Z" fill="black"/>
<path d="M33.566 74.8843H31.1425C30.8721 74.8843 30.6127 74.7769 30.4215 74.5856C30.2303 74.3944 30.1229 74.1351 30.1229 73.8646C30.1229 73.5942 30.2303 73.3348 30.4215 73.1436C30.6127 72.9524 30.8721 72.845 31.1425 72.845H33.566C33.8365 72.845 34.0958 72.9524 34.2871 73.1436C34.4783 73.3348 34.5857 73.5942 34.5857 73.8646C34.5857 74.1351 34.4783 74.3944 34.2871 74.5856C34.0958 74.7769 33.8365 74.8843 33.566 74.8843Z" fill="black"/>
<path d="M33.566 69.3723H31.1425C30.8721 69.3723 30.6127 69.2649 30.4215 69.0737C30.2303 68.8824 30.1229 68.6231 30.1229 68.3527C30.1229 68.0822 30.2303 67.8229 30.4215 67.6317C30.6127 67.4404 30.8721 67.333 31.1425 67.333H33.566C33.8365 67.333 34.0958 67.4404 34.2871 67.6317C34.4783 67.8229 34.5857 68.0822 34.5857 68.3527C34.5857 68.6231 34.4783 68.8824 34.2871 69.0737C34.0958 69.2649 33.8365 69.3723 33.566 69.3723Z" fill="black"/>
<path d="M55.8801 81.7263H42.0629C41.7925 81.7263 41.5332 81.6189 41.342 81.4277C41.1507 81.2365 41.0433 80.9771 41.0433 80.7067C41.0433 80.4362 41.1507 80.1769 41.342 79.9857C41.5332 79.7944 41.7925 79.687 42.0629 79.687H55.8801C56.1505 79.687 56.4099 79.7944 56.6011 79.9857C56.7923 80.1769 56.8997 80.4362 56.8997 80.7067C56.8997 80.9771 56.7923 81.2365 56.6011 81.4277C56.4099 81.6189 56.1505 81.7263 55.8801 81.7263Z" fill="black"/>
<path d="M72.6966 34.8665C72.4262 34.8665 72.1668 34.759 71.9756 34.5678C71.7844 34.3766 71.6769 34.1172 71.6769 33.8468V24.0197C71.6769 23.7492 71.7844 23.4899 71.9756 23.2986C72.1668 23.1074 72.4262 23 72.6966 23C72.967 23 73.2264 23.1074 73.4176 23.2986C73.6089 23.4899 73.7163 23.7492 73.7163 24.0197V33.8468C73.7163 34.1172 73.6089 34.3766 73.4176 34.5678C73.2264 34.759 72.967 34.8665 72.6966 34.8665Z" fill="black"/>
<path d="M81.7116 37.5855C81.4412 37.5855 81.1818 37.478 80.9906 37.2868C80.7994 37.0956 80.692 36.8362 80.692 36.5658V26.7239C80.692 26.4534 80.7994 26.1941 80.9906 26.0029C81.1818 25.8116 81.4412 25.7042 81.7116 25.7042C81.9821 25.7042 82.2414 25.8116 82.4326 26.0029C82.6239 26.1941 82.7313 26.4534 82.7313 26.7239V36.551C82.7333 36.6862 82.7083 36.8203 82.658 36.9458C82.6076 37.0712 82.5328 37.1854 82.4379 37.2816C82.343 37.3779 82.23 37.4543 82.1053 37.5065C81.9806 37.5586 81.8468 37.5855 81.7116 37.5855Z" fill="black"/>
<path d="M63.6083 37.5855C63.3379 37.5855 63.0785 37.478 62.8873 37.2868C62.6961 37.0956 62.5887 36.8362 62.5887 36.5658V26.7239C62.5887 26.4534 62.6961 26.1941 62.8873 26.0029C63.0785 25.8116 63.3379 25.7042 63.6083 25.7042C63.8788 25.7042 64.1381 25.8116 64.3293 26.0029C64.5205 26.1941 64.628 26.4534 64.628 26.7239V36.551C64.63 36.6862 64.605 36.8203 64.5547 36.9458C64.5043 37.0712 64.4295 37.1854 64.3346 37.2816C64.2397 37.3779 64.1267 37.4543 64.002 37.5065C63.8773 37.5586 63.7435 37.5855 63.6083 37.5855Z" fill="black"/>
</g>
</svg>
